<mxfile host="app.diagrams.net" agent="Mozilla/5.0 (Windows NT 10.0; Win64; x64) AppleWebKit/537.36 (KHTML, like Gecko) Chrome/138.0.0.0 Safari/537.36" version="28.0.4">
  <diagram name="Page-1" id="4FfSjnLQiRZDArtGg9yz">
    <mxGraphModel dx="11110" dy="5630" grid="0" gridSize="10" guides="1" tooltips="1" connect="1" arrows="1" fold="1" page="0" pageScale="1" pageWidth="827" pageHeight="1169" math="0" shadow="0">
      <root>
        <mxCell id="0" />
        <mxCell id="1" parent="0" />
        <mxCell id="VvKC9R2UhtkqxEphzzf7-555" value="User" style="swimlane;fontStyle=0;childLayout=stackLayout;horizontal=1;startSize=26;fillColor=none;horizontalStack=0;resizeParent=1;resizeParentMax=0;resizeLast=0;collapsible=1;marginBottom=0;whiteSpace=wrap;html=1;labelBackgroundColor=none;" vertex="1" parent="1">
          <mxGeometry x="111" y="315" width="140" height="116" as="geometry" />
        </mxCell>
        <mxCell id="VvKC9R2UhtkqxEphzzf7-556" value="&lt;div&gt;username{id}&lt;/div&gt;" style="text;strokeColor=none;fillColor=none;align=left;verticalAlign=top;spacingLeft=4;spacingRight=4;overflow=hidden;rotatable=0;points=[[0,0.5],[1,0.5]];portConstraint=eastwest;whiteSpace=wrap;html=1;labelBackgroundColor=none;" vertex="1" parent="VvKC9R2UhtkqxEphzzf7-555">
          <mxGeometry y="26" width="140" height="30" as="geometry" />
        </mxCell>
        <mxCell id="VvKC9R2UhtkqxEphzzf7-557" value="mail[0...1]" style="text;strokeColor=none;fillColor=none;align=left;verticalAlign=top;spacingLeft=4;spacingRight=4;overflow=hidden;rotatable=0;points=[[0,0.5],[1,0.5]];portConstraint=eastwest;whiteSpace=wrap;html=1;labelBackgroundColor=none;" vertex="1" parent="VvKC9R2UhtkqxEphzzf7-555">
          <mxGeometry y="56" width="140" height="30" as="geometry" />
        </mxCell>
        <mxCell id="VvKC9R2UhtkqxEphzzf7-558" value="password" style="text;strokeColor=none;fillColor=none;align=left;verticalAlign=top;spacingLeft=4;spacingRight=4;overflow=hidden;rotatable=0;points=[[0,0.5],[1,0.5]];portConstraint=eastwest;whiteSpace=wrap;html=1;labelBackgroundColor=none;" vertex="1" parent="VvKC9R2UhtkqxEphzzf7-555">
          <mxGeometry y="86" width="140" height="30" as="geometry" />
        </mxCell>
        <mxCell id="VvKC9R2UhtkqxEphzzf7-559" style="edgeStyle=orthogonalEdgeStyle;rounded=0;orthogonalLoop=1;jettySize=auto;html=1;exitX=0.5;exitY=0;exitDx=0;exitDy=0;entryX=0.5;entryY=1;entryDx=0;entryDy=0;labelBackgroundColor=none;" edge="1" parent="1" source="VvKC9R2UhtkqxEphzzf7-560" target="VvKC9R2UhtkqxEphzzf7-555">
          <mxGeometry relative="1" as="geometry" />
        </mxCell>
        <mxCell id="VvKC9R2UhtkqxEphzzf7-560" value="Admin" style="swimlane;fontStyle=0;childLayout=stackLayout;horizontal=1;startSize=26;fillColor=none;horizontalStack=0;resizeParent=1;resizeParentMax=0;resizeLast=0;collapsible=1;marginBottom=0;whiteSpace=wrap;html=1;labelBackgroundColor=none;" vertex="1" parent="1">
          <mxGeometry x="11" y="555" width="140" height="56" as="geometry" />
        </mxCell>
        <mxCell id="VvKC9R2UhtkqxEphzzf7-561" style="edgeStyle=orthogonalEdgeStyle;rounded=0;orthogonalLoop=1;jettySize=auto;html=1;exitX=0.5;exitY=0;exitDx=0;exitDy=0;entryX=0.5;entryY=1;entryDx=0;entryDy=0;labelBackgroundColor=none;" edge="1" parent="1" source="VvKC9R2UhtkqxEphzzf7-563" target="VvKC9R2UhtkqxEphzzf7-555">
          <mxGeometry relative="1" as="geometry" />
        </mxCell>
        <mxCell id="VvKC9R2UhtkqxEphzzf7-562" style="rounded=0;orthogonalLoop=1;jettySize=auto;html=1;endArrow=none;startFill=0;entryX=0;entryY=0.166;entryDx=0;entryDy=0;exitX=1;exitY=0.25;exitDx=0;exitDy=0;entryPerimeter=0;jumpStyle=none;labelBackgroundColor=none;" edge="1" parent="1" source="VvKC9R2UhtkqxEphzzf7-563" target="VvKC9R2UhtkqxEphzzf7-564">
          <mxGeometry relative="1" as="geometry">
            <mxPoint x="361" y="598" as="sourcePoint" />
            <mxPoint x="451" y="595" as="targetPoint" />
          </mxGeometry>
        </mxCell>
        <mxCell id="VvKC9R2UhtkqxEphzzf7-563" value="Customer" style="swimlane;fontStyle=0;childLayout=stackLayout;horizontal=1;startSize=26;fillColor=none;horizontalStack=0;resizeParent=1;resizeParentMax=0;resizeLast=0;collapsible=1;marginBottom=0;whiteSpace=wrap;html=1;labelBackgroundColor=none;" vertex="1" parent="1">
          <mxGeometry x="211" y="555" width="140" height="56" as="geometry" />
        </mxCell>
        <mxCell id="VvKC9R2UhtkqxEphzzf7-564" value="Booking" style="swimlane;fontStyle=0;childLayout=stackLayout;horizontal=1;startSize=26;fillColor=none;horizontalStack=0;resizeParent=1;resizeParentMax=0;resizeLast=0;collapsible=1;marginBottom=0;whiteSpace=wrap;html=1;labelBackgroundColor=none;" vertex="1" parent="1">
          <mxGeometry x="491" y="555" width="180" height="86" as="geometry" />
        </mxCell>
        <mxCell id="VvKC9R2UhtkqxEphzzf7-565" value="booking_status: BookingStatus" style="text;strokeColor=none;fillColor=none;align=left;verticalAlign=top;spacingLeft=4;spacingRight=4;overflow=hidden;rotatable=0;points=[[0,0.5],[1,0.5]];portConstraint=eastwest;whiteSpace=wrap;html=1;labelBackgroundColor=none;" vertex="1" parent="VvKC9R2UhtkqxEphzzf7-564">
          <mxGeometry y="26" width="180" height="30" as="geometry" />
        </mxCell>
        <mxCell id="VvKC9R2UhtkqxEphzzf7-566" value="booking_time" style="text;strokeColor=none;fillColor=none;align=left;verticalAlign=top;spacingLeft=4;spacingRight=4;overflow=hidden;rotatable=0;points=[[0,0.5],[1,0.5]];portConstraint=eastwest;whiteSpace=wrap;html=1;labelBackgroundColor=none;" vertex="1" parent="VvKC9R2UhtkqxEphzzf7-564">
          <mxGeometry y="56" width="180" height="30" as="geometry" />
        </mxCell>
        <mxCell id="VvKC9R2UhtkqxEphzzf7-567" value="&lt;div&gt;&amp;lt;&amp;lt;enumeration&amp;gt;&amp;gt;&lt;/div&gt;&lt;div&gt;BookingStatus&lt;/div&gt;" style="swimlane;fontStyle=1;align=center;verticalAlign=top;childLayout=stackLayout;horizontal=1;startSize=50;horizontalStack=0;resizeParent=1;resizeParentMax=0;resizeLast=0;collapsible=1;marginBottom=0;whiteSpace=wrap;html=1;labelBackgroundColor=none;fillColor=none;" vertex="1" parent="1">
          <mxGeometry x="492" y="677" width="160" height="140" as="geometry" />
        </mxCell>
        <mxCell id="VvKC9R2UhtkqxEphzzf7-568" value="confirmed" style="text;strokeColor=none;fillColor=none;align=left;verticalAlign=top;spacingLeft=4;spacingRight=4;overflow=hidden;rotatable=0;points=[[0,0.5],[1,0.5]];portConstraint=eastwest;whiteSpace=wrap;html=1;labelBackgroundColor=none;" vertex="1" parent="VvKC9R2UhtkqxEphzzf7-567">
          <mxGeometry y="50" width="160" height="30" as="geometry" />
        </mxCell>
        <mxCell id="VvKC9R2UhtkqxEphzzf7-569" value="pending" style="text;strokeColor=none;fillColor=none;align=left;verticalAlign=top;spacingLeft=4;spacingRight=4;overflow=hidden;rotatable=0;points=[[0,0.5],[1,0.5]];portConstraint=eastwest;whiteSpace=wrap;html=1;labelBackgroundColor=none;" vertex="1" parent="VvKC9R2UhtkqxEphzzf7-567">
          <mxGeometry y="80" width="160" height="30" as="geometry" />
        </mxCell>
        <mxCell id="VvKC9R2UhtkqxEphzzf7-570" value="cancelled" style="text;strokeColor=none;fillColor=none;align=left;verticalAlign=top;spacingLeft=4;spacingRight=4;overflow=hidden;rotatable=0;points=[[0,0.5],[1,0.5]];portConstraint=eastwest;whiteSpace=wrap;html=1;labelBackgroundColor=none;" vertex="1" parent="VvKC9R2UhtkqxEphzzf7-567">
          <mxGeometry y="110" width="160" height="30" as="geometry" />
        </mxCell>
        <mxCell id="VvKC9R2UhtkqxEphzzf7-571" value="1...1" style="text;strokeColor=none;align=center;fillColor=none;html=1;verticalAlign=middle;whiteSpace=wrap;rounded=0;labelBackgroundColor=none;" vertex="1" parent="1">
          <mxGeometry x="351" y="547" width="30" height="30" as="geometry" />
        </mxCell>
        <mxCell id="VvKC9R2UhtkqxEphzzf7-572" value="0...*" style="text;strokeColor=none;align=center;fillColor=none;html=1;verticalAlign=middle;whiteSpace=wrap;rounded=0;labelBackgroundColor=none;" vertex="1" parent="1">
          <mxGeometry x="462" y="547" width="30" height="30" as="geometry" />
        </mxCell>
        <mxCell id="VvKC9R2UhtkqxEphzzf7-573" value="Makes" style="text;strokeColor=none;align=center;fillColor=none;html=1;verticalAlign=middle;whiteSpace=wrap;rounded=0;labelBackgroundColor=none;" vertex="1" parent="1">
          <mxGeometry x="392" y="545" width="60" height="30" as="geometry" />
        </mxCell>
        <mxCell id="VvKC9R2UhtkqxEphzzf7-574" value="Passenger" style="swimlane;fontStyle=0;childLayout=stackLayout;horizontal=1;startSize=26;fillColor=none;horizontalStack=0;resizeParent=1;resizeParentMax=0;resizeLast=0;collapsible=1;marginBottom=0;whiteSpace=wrap;html=1;labelBackgroundColor=none;" vertex="1" parent="1">
          <mxGeometry x="372" y="242" width="140" height="146" as="geometry" />
        </mxCell>
        <mxCell id="VvKC9R2UhtkqxEphzzf7-575" value="first_name[0...1]" style="text;strokeColor=none;fillColor=none;align=left;verticalAlign=top;spacingLeft=4;spacingRight=4;overflow=hidden;rotatable=0;points=[[0,0.5],[1,0.5]];portConstraint=eastwest;whiteSpace=wrap;html=1;labelBackgroundColor=none;" vertex="1" parent="VvKC9R2UhtkqxEphzzf7-574">
          <mxGeometry y="26" width="140" height="30" as="geometry" />
        </mxCell>
        <mxCell id="VvKC9R2UhtkqxEphzzf7-576" value="last_name[0...1]" style="text;strokeColor=none;fillColor=none;align=left;verticalAlign=top;spacingLeft=4;spacingRight=4;overflow=hidden;rotatable=0;points=[[0,0.5],[1,0.5]];portConstraint=eastwest;whiteSpace=wrap;html=1;labelBackgroundColor=none;" vertex="1" parent="VvKC9R2UhtkqxEphzzf7-574">
          <mxGeometry y="56" width="140" height="30" as="geometry" />
        </mxCell>
        <mxCell id="VvKC9R2UhtkqxEphzzf7-577" value="birth_date[0...1]" style="text;strokeColor=none;fillColor=none;align=left;verticalAlign=top;spacingLeft=4;spacingRight=4;overflow=hidden;rotatable=0;points=[[0,0.5],[1,0.5]];portConstraint=eastwest;whiteSpace=wrap;html=1;labelBackgroundColor=none;" vertex="1" parent="VvKC9R2UhtkqxEphzzf7-574">
          <mxGeometry y="86" width="140" height="30" as="geometry" />
        </mxCell>
        <mxCell id="VvKC9R2UhtkqxEphzzf7-578" value="SSN: {id}" style="text;strokeColor=none;fillColor=none;align=left;verticalAlign=top;spacingLeft=4;spacingRight=4;overflow=hidden;rotatable=0;points=[[0,0.5],[1,0.5]];portConstraint=eastwest;whiteSpace=wrap;html=1;labelBackgroundColor=none;" vertex="1" parent="VvKC9R2UhtkqxEphzzf7-574">
          <mxGeometry y="116" width="140" height="30" as="geometry" />
        </mxCell>
        <mxCell id="VvKC9R2UhtkqxEphzzf7-579" value="&lt;div&gt;&lt;br&gt;&lt;/div&gt;&lt;div&gt;&lt;br&gt;&lt;/div&gt;" style="endArrow=none;html=1;startArrow=none;startFill=0;align=left;verticalAlign=bottom;rounded=0;labelBackgroundColor=none;endFill=0;" edge="1" parent="1" source="VvKC9R2UhtkqxEphzzf7-564" target="VvKC9R2UhtkqxEphzzf7-730">
          <mxGeometry x="-0.8676" y="29" relative="1" as="geometry">
            <mxPoint x="512" y="303" as="sourcePoint" />
            <mxPoint x="672" y="303" as="targetPoint" />
            <mxPoint as="offset" />
          </mxGeometry>
        </mxCell>
        <mxCell id="VvKC9R2UhtkqxEphzzf7-580" value="0...*" style="text;html=1;align=center;verticalAlign=middle;resizable=0;points=[];autosize=1;strokeColor=none;fillColor=none;labelBackgroundColor=none;" vertex="1" parent="1">
          <mxGeometry x="712" y="358" width="40" height="30" as="geometry" />
        </mxCell>
        <mxCell id="VvKC9R2UhtkqxEphzzf7-581" value="Flight" style="swimlane;fontStyle=0;childLayout=stackLayout;horizontal=1;startSize=26;fillColor=none;horizontalStack=0;resizeParent=1;resizeParentMax=0;resizeLast=0;collapsible=1;marginBottom=0;whiteSpace=wrap;html=1;labelBackgroundColor=none;" vertex="1" parent="1">
          <mxGeometry x="807" y="467" width="150" height="266" as="geometry" />
        </mxCell>
        <mxCell id="VvKC9R2UhtkqxEphzzf7-582" value="&lt;div&gt;id_flight&lt;span style=&quot;color: light-dark(rgb(0, 0, 0), rgb(255, 255, 255));&quot;&gt;{id}&lt;/span&gt;&lt;/div&gt;" style="text;strokeColor=none;fillColor=none;align=left;verticalAlign=top;spacingLeft=4;spacingRight=4;overflow=hidden;rotatable=0;points=[[0,0.5],[1,0.5]];portConstraint=eastwest;whiteSpace=wrap;html=1;labelBackgroundColor=none;" vertex="1" parent="VvKC9R2UhtkqxEphzzf7-581">
          <mxGeometry y="26" width="150" height="30" as="geometry" />
        </mxCell>
        <mxCell id="VvKC9R2UhtkqxEphzzf7-583" value="company_name" style="text;strokeColor=none;fillColor=none;align=left;verticalAlign=top;spacingLeft=4;spacingRight=4;overflow=hidden;rotatable=0;points=[[0,0.5],[1,0.5]];portConstraint=eastwest;whiteSpace=wrap;html=1;labelBackgroundColor=none;" vertex="1" parent="VvKC9R2UhtkqxEphzzf7-581">
          <mxGeometry y="56" width="150" height="30" as="geometry" />
        </mxCell>
        <mxCell id="VvKC9R2UhtkqxEphzzf7-584" value="date" style="text;strokeColor=none;fillColor=none;align=left;verticalAlign=top;spacingLeft=4;spacingRight=4;overflow=hidden;rotatable=0;points=[[0,0.5],[1,0.5]];portConstraint=eastwest;whiteSpace=wrap;html=1;labelBackgroundColor=none;" vertex="1" parent="VvKC9R2UhtkqxEphzzf7-581">
          <mxGeometry y="86" width="150" height="30" as="geometry" />
        </mxCell>
        <mxCell id="VvKC9R2UhtkqxEphzzf7-585" value="departure_time" style="text;strokeColor=none;fillColor=none;align=left;verticalAlign=top;spacingLeft=4;spacingRight=4;overflow=hidden;rotatable=0;points=[[0,0.5],[1,0.5]];portConstraint=eastwest;whiteSpace=wrap;html=1;labelBackgroundColor=none;" vertex="1" parent="VvKC9R2UhtkqxEphzzf7-581">
          <mxGeometry y="116" width="150" height="30" as="geometry" />
        </mxCell>
        <mxCell id="VvKC9R2UhtkqxEphzzf7-586" value="arrival_time" style="text;strokeColor=none;fillColor=none;align=left;verticalAlign=top;spacingLeft=4;spacingRight=4;overflow=hidden;rotatable=0;points=[[0,0.5],[1,0.5]];portConstraint=eastwest;whiteSpace=wrap;html=1;labelBackgroundColor=none;" vertex="1" parent="VvKC9R2UhtkqxEphzzf7-581">
          <mxGeometry y="146" width="150" height="30" as="geometry" />
        </mxCell>
        <mxCell id="VvKC9R2UhtkqxEphzzf7-587" value="flight_status: FlightStatus" style="text;strokeColor=none;fillColor=none;align=left;verticalAlign=top;spacingLeft=4;spacingRight=4;overflow=hidden;rotatable=0;points=[[0,0.5],[1,0.5]];portConstraint=eastwest;whiteSpace=wrap;html=1;labelBackgroundColor=none;" vertex="1" parent="VvKC9R2UhtkqxEphzzf7-581">
          <mxGeometry y="176" width="150" height="30" as="geometry" />
        </mxCell>
        <mxCell id="VvKC9R2UhtkqxEphzzf7-588" value="max_seats" style="text;strokeColor=none;fillColor=none;align=left;verticalAlign=top;spacingLeft=4;spacingRight=4;overflow=hidden;rotatable=0;points=[[0,0.5],[1,0.5]];portConstraint=eastwest;whiteSpace=wrap;html=1;labelBackgroundColor=none;" vertex="1" parent="VvKC9R2UhtkqxEphzzf7-581">
          <mxGeometry y="206" width="150" height="30" as="geometry" />
        </mxCell>
        <mxCell id="VvKC9R2UhtkqxEphzzf7-589" value="free_seats" style="text;strokeColor=none;fillColor=none;align=left;verticalAlign=top;spacingLeft=4;spacingRight=4;overflow=hidden;rotatable=0;points=[[0,0.5],[1,0.5]];portConstraint=eastwest;whiteSpace=wrap;html=1;labelBackgroundColor=none;" vertex="1" parent="VvKC9R2UhtkqxEphzzf7-581">
          <mxGeometry y="236" width="150" height="30" as="geometry" />
        </mxCell>
        <mxCell id="VvKC9R2UhtkqxEphzzf7-590" style="rounded=0;orthogonalLoop=1;jettySize=auto;html=1;endArrow=none;startFill=0;labelBackgroundColor=none;" edge="1" parent="1" source="VvKC9R2UhtkqxEphzzf7-581" target="VvKC9R2UhtkqxEphzzf7-697">
          <mxGeometry relative="1" as="geometry">
            <mxPoint x="1062" y="587" as="targetPoint" />
          </mxGeometry>
        </mxCell>
        <mxCell id="VvKC9R2UhtkqxEphzzf7-591" style="edgeStyle=orthogonalEdgeStyle;rounded=0;orthogonalLoop=1;jettySize=auto;html=1;exitX=0.5;exitY=0;exitDx=0;exitDy=0;entryX=0.5;entryY=1;entryDx=0;entryDy=0;labelBackgroundColor=none;" edge="1" parent="1" source="VvKC9R2UhtkqxEphzzf7-592" target="VvKC9R2UhtkqxEphzzf7-581">
          <mxGeometry relative="1" as="geometry">
            <mxPoint x="882" y="718" as="targetPoint" />
          </mxGeometry>
        </mxCell>
        <mxCell id="VvKC9R2UhtkqxEphzzf7-592" value="Departing" style="swimlane;fontStyle=0;childLayout=stackLayout;horizontal=1;startSize=26;fillColor=none;horizontalStack=0;resizeParent=1;resizeParentMax=0;resizeLast=0;collapsible=1;marginBottom=0;whiteSpace=wrap;html=1;labelBackgroundColor=none;" vertex="1" parent="1">
          <mxGeometry x="662" y="847" width="140" height="86" as="geometry" />
        </mxCell>
        <mxCell id="VvKC9R2UhtkqxEphzzf7-593" value="&lt;div align=&quot;left&quot;&gt;destination&lt;/div&gt;" style="text;html=1;align=left;verticalAlign=middle;resizable=0;points=[];autosize=1;strokeColor=none;fillColor=none;labelBackgroundColor=none;" vertex="1" parent="VvKC9R2UhtkqxEphzzf7-592">
          <mxGeometry y="26" width="140" height="30" as="geometry" />
        </mxCell>
        <mxCell id="VvKC9R2UhtkqxEphzzf7-594" value="&lt;div&gt;departure_delay&lt;span style=&quot;text-wrap-mode: wrap; color: light-dark(rgb(0, 0, 0), rgb(255, 255, 255));&quot;&gt;[0...1]&lt;/span&gt;&lt;/div&gt;" style="text;html=1;align=left;verticalAlign=middle;resizable=0;points=[];autosize=1;strokeColor=none;fillColor=none;labelBackgroundColor=none;" vertex="1" parent="VvKC9R2UhtkqxEphzzf7-592">
          <mxGeometry y="56" width="140" height="30" as="geometry" />
        </mxCell>
        <mxCell id="VvKC9R2UhtkqxEphzzf7-595" style="edgeStyle=orthogonalEdgeStyle;rounded=0;orthogonalLoop=1;jettySize=auto;html=1;exitX=0.5;exitY=0;exitDx=0;exitDy=0;entryX=0.5;entryY=1;entryDx=0;entryDy=0;labelBackgroundColor=none;" edge="1" parent="1" source="VvKC9R2UhtkqxEphzzf7-596" target="VvKC9R2UhtkqxEphzzf7-581">
          <mxGeometry relative="1" as="geometry">
            <mxPoint x="892" y="718" as="targetPoint" />
          </mxGeometry>
        </mxCell>
        <mxCell id="VvKC9R2UhtkqxEphzzf7-596" value="Arriving" style="swimlane;fontStyle=0;childLayout=stackLayout;horizontal=1;startSize=26;fillColor=none;horizontalStack=0;resizeParent=1;resizeParentMax=0;resizeLast=0;collapsible=1;marginBottom=0;whiteSpace=wrap;html=1;labelBackgroundColor=none;" vertex="1" parent="1">
          <mxGeometry x="962" y="847" width="140" height="86" as="geometry" />
        </mxCell>
        <mxCell id="VvKC9R2UhtkqxEphzzf7-597" value="origin" style="text;html=1;align=left;verticalAlign=middle;resizable=0;points=[];autosize=1;strokeColor=none;fillColor=none;labelBackgroundColor=none;" vertex="1" parent="VvKC9R2UhtkqxEphzzf7-596">
          <mxGeometry y="26" width="140" height="30" as="geometry" />
        </mxCell>
        <mxCell id="VvKC9R2UhtkqxEphzzf7-598" value="arrival_delay&lt;span style=&quot;text-wrap-mode: wrap;&quot;&gt;[0...1]&lt;/span&gt;" style="text;html=1;align=left;verticalAlign=middle;resizable=0;points=[];autosize=1;strokeColor=none;fillColor=none;labelBackgroundColor=none;" vertex="1" parent="VvKC9R2UhtkqxEphzzf7-596">
          <mxGeometry y="56" width="140" height="30" as="geometry" />
        </mxCell>
        <mxCell id="VvKC9R2UhtkqxEphzzf7-599" value="{totale, disgiunta}" style="text;html=1;align=center;verticalAlign=middle;resizable=0;points=[];autosize=1;strokeColor=none;fillColor=none;labelBackgroundColor=none;" vertex="1" parent="1">
          <mxGeometry x="172" y="437" width="120" height="30" as="geometry" />
        </mxCell>
        <mxCell id="VvKC9R2UhtkqxEphzzf7-600" value="{totale, disgiunta}" style="text;html=1;align=center;verticalAlign=middle;resizable=0;points=[];autosize=1;strokeColor=none;fillColor=none;labelBackgroundColor=none;" vertex="1" parent="1">
          <mxGeometry x="882" y="748" width="120" height="30" as="geometry" />
        </mxCell>
        <mxCell id="VvKC9R2UhtkqxEphzzf7-601" value="Gate" style="swimlane;fontStyle=0;childLayout=stackLayout;horizontal=1;startSize=26;fillColor=none;horizontalStack=0;resizeParent=1;resizeParentMax=0;resizeLast=0;collapsible=1;marginBottom=0;whiteSpace=wrap;html=1;labelBackgroundColor=none;" vertex="1" parent="1">
          <mxGeometry x="1126" y="575" width="140" height="56" as="geometry" />
        </mxCell>
        <mxCell id="VvKC9R2UhtkqxEphzzf7-602" value="id_gate{id}" style="text;strokeColor=none;fillColor=none;align=left;verticalAlign=top;spacingLeft=4;spacingRight=4;overflow=hidden;rotatable=0;points=[[0,0.5],[1,0.5]];portConstraint=eastwest;whiteSpace=wrap;html=1;labelBackgroundColor=none;" vertex="1" parent="VvKC9R2UhtkqxEphzzf7-601">
          <mxGeometry y="26" width="140" height="30" as="geometry" />
        </mxCell>
        <mxCell id="VvKC9R2UhtkqxEphzzf7-603" value="" style="html=1;verticalAlign=bottom;endArrow=none;curved=0;rounded=0;startFill=0;labelBackgroundColor=none;" edge="1" parent="1" source="VvKC9R2UhtkqxEphzzf7-601" target="VvKC9R2UhtkqxEphzzf7-581">
          <mxGeometry width="80" relative="1" as="geometry">
            <mxPoint x="522" y="906.5699999999997" as="sourcePoint" />
            <mxPoint x="602" y="906.5699999999997" as="targetPoint" />
          </mxGeometry>
        </mxCell>
        <mxCell id="VvKC9R2UhtkqxEphzzf7-604" value="0...*" style="text;html=1;align=center;verticalAlign=middle;resizable=0;points=[];autosize=1;strokeColor=none;fillColor=none;labelBackgroundColor=none;" vertex="1" parent="1">
          <mxGeometry x="812" y="361" width="40" height="30" as="geometry" />
        </mxCell>
        <mxCell id="VvKC9R2UhtkqxEphzzf7-605" value="" style="endArrow=none;endFill=0;html=1;align=left;verticalAlign=top;rounded=0;exitX=1.001;exitY=0.552;exitDx=0;exitDy=0;labelBackgroundColor=none;entryX=0;entryY=0.5;entryDx=0;entryDy=0;exitPerimeter=0;" edge="1" parent="1" source="VvKC9R2UhtkqxEphzzf7-565" target="VvKC9R2UhtkqxEphzzf7-585">
          <mxGeometry x="-1" relative="1" as="geometry">
            <mxPoint x="632" y="508" as="sourcePoint" />
            <mxPoint x="802" y="577" as="targetPoint" />
          </mxGeometry>
        </mxCell>
        <mxCell id="VvKC9R2UhtkqxEphzzf7-606" value="0...*" style="edgeLabel;resizable=0;html=1;align=left;verticalAlign=bottom;labelBackgroundColor=none;" connectable="0" vertex="1" parent="VvKC9R2UhtkqxEphzzf7-605">
          <mxGeometry relative="1" as="geometry">
            <mxPoint x="-66" y="1" as="offset" />
          </mxGeometry>
        </mxCell>
        <mxCell id="VvKC9R2UhtkqxEphzzf7-607" value="" style="edgeStyle=none;curved=1;rounded=0;orthogonalLoop=1;jettySize=auto;html=1;fontSize=12;startSize=8;endSize=8;entryX=1;entryY=0.5;entryDx=0;entryDy=0;exitX=0;exitY=0.5;exitDx=0;exitDy=0;endArrow=none;startFill=0;labelBackgroundColor=none;" edge="1" parent="1" source="VvKC9R2UhtkqxEphzzf7-708" target="VvKC9R2UhtkqxEphzzf7-621">
          <mxGeometry relative="1" as="geometry">
            <mxPoint x="1402.4060332541567" y="354.5" as="sourcePoint" />
            <mxPoint x="1422.002232779097" y="492" as="targetPoint" />
          </mxGeometry>
        </mxCell>
        <mxCell id="VvKC9R2UhtkqxEphzzf7-608" value="" style="endArrow=none;html=1;rounded=0;labelBackgroundColor=none;entryX=0.468;entryY=1.044;entryDx=0;entryDy=0;entryPerimeter=0;" edge="1" parent="1" source="VvKC9R2UhtkqxEphzzf7-730" target="VvKC9R2UhtkqxEphzzf7-709">
          <mxGeometry relative="1" as="geometry">
            <mxPoint x="1202" y="354.5" as="sourcePoint" />
            <mxPoint x="1302" y="317.5" as="targetPoint" />
          </mxGeometry>
        </mxCell>
        <mxCell id="VvKC9R2UhtkqxEphzzf7-609" value="1...1" style="edgeLabel;resizable=0;html=1;align=left;verticalAlign=bottom;labelBackgroundColor=none;" connectable="0" vertex="1" parent="VvKC9R2UhtkqxEphzzf7-608">
          <mxGeometry relative="1" as="geometry">
            <mxPoint x="-31" y="47" as="offset" />
          </mxGeometry>
        </mxCell>
        <mxCell id="VvKC9R2UhtkqxEphzzf7-610" value="0...*" style="edgeLabel;resizable=0;html=1;align=right;verticalAlign=bottom;labelBackgroundColor=none;" connectable="0" vertex="1" parent="VvKC9R2UhtkqxEphzzf7-608">
          <mxGeometry relative="1" as="geometry">
            <mxPoint x="29" y="-34" as="offset" />
          </mxGeometry>
        </mxCell>
        <mxCell id="VvKC9R2UhtkqxEphzzf7-611" value="For" style="text;html=1;align=center;verticalAlign=middle;resizable=0;points=[];autosize=1;strokeColor=none;fillColor=none;labelBackgroundColor=none;" vertex="1" parent="1">
          <mxGeometry x="712" y="575" width="40" height="30" as="geometry" />
        </mxCell>
        <mxCell id="VvKC9R2UhtkqxEphzzf7-612" value="From" style="text;html=1;align=center;verticalAlign=middle;resizable=0;points=[];autosize=1;strokeColor=none;fillColor=none;labelBackgroundColor=none;" vertex="1" parent="1">
          <mxGeometry x="1021" y="568" width="50" height="30" as="geometry" />
        </mxCell>
        <mxCell id="VvKC9R2UhtkqxEphzzf7-613" value="is for" style="text;html=1;align=center;verticalAlign=middle;resizable=0;points=[];autosize=1;strokeColor=none;fillColor=none;labelBackgroundColor=none;" vertex="1" parent="1">
          <mxGeometry x="822" y="401" width="50" height="30" as="geometry" />
        </mxCell>
        <mxCell id="VvKC9R2UhtkqxEphzzf7-614" value="Includes" style="text;html=1;align=center;verticalAlign=middle;resizable=0;points=[];autosize=1;strokeColor=none;fillColor=none;labelBackgroundColor=none;" vertex="1" parent="1">
          <mxGeometry x="797" y="187" width="70" height="30" as="geometry" />
        </mxCell>
        <mxCell id="VvKC9R2UhtkqxEphzzf7-615" value="&amp;lt;&amp;lt;enumeration&amp;gt;&amp;gt;&lt;br&gt;LuggageStatus" style="swimlane;fontStyle=0;childLayout=stackLayout;horizontal=1;startSize=39;fillColor=none;horizontalStack=0;resizeParent=1;resizeParentMax=0;resizeLast=0;collapsible=1;marginBottom=0;whiteSpace=wrap;html=1;labelBackgroundColor=none;" vertex="1" parent="1">
          <mxGeometry x="1002" y="15" width="140" height="159" as="geometry" />
        </mxCell>
        <mxCell id="VvKC9R2UhtkqxEphzzf7-616" value="booked" style="text;strokeColor=none;fillColor=none;align=left;verticalAlign=top;spacingLeft=4;spacingRight=4;overflow=hidden;rotatable=0;points=[[0,0.5],[1,0.5]];portConstraint=eastwest;whiteSpace=wrap;html=1;labelBackgroundColor=none;" vertex="1" parent="VvKC9R2UhtkqxEphzzf7-615">
          <mxGeometry y="39" width="140" height="30" as="geometry" />
        </mxCell>
        <mxCell id="VvKC9R2UhtkqxEphzzf7-617" value="loaded" style="text;strokeColor=none;fillColor=none;align=left;verticalAlign=top;spacingLeft=4;spacingRight=4;overflow=hidden;rotatable=0;points=[[0,0.5],[1,0.5]];portConstraint=eastwest;whiteSpace=wrap;html=1;labelBackgroundColor=none;" vertex="1" parent="VvKC9R2UhtkqxEphzzf7-615">
          <mxGeometry y="69" width="140" height="30" as="geometry" />
        </mxCell>
        <mxCell id="VvKC9R2UhtkqxEphzzf7-618" value="withdrawable" style="text;strokeColor=none;fillColor=none;align=left;verticalAlign=top;spacingLeft=4;spacingRight=4;overflow=hidden;rotatable=0;points=[[0,0.5],[1,0.5]];portConstraint=eastwest;whiteSpace=wrap;html=1;labelBackgroundColor=none;" vertex="1" parent="VvKC9R2UhtkqxEphzzf7-615">
          <mxGeometry y="99" width="140" height="30" as="geometry" />
        </mxCell>
        <mxCell id="VvKC9R2UhtkqxEphzzf7-619" value="lost" style="text;strokeColor=none;fillColor=none;align=left;verticalAlign=top;spacingLeft=4;spacingRight=4;overflow=hidden;rotatable=0;points=[[0,0.5],[1,0.5]];portConstraint=eastwest;whiteSpace=wrap;html=1;labelBackgroundColor=none;" vertex="1" parent="VvKC9R2UhtkqxEphzzf7-615">
          <mxGeometry y="129" width="140" height="30" as="geometry" />
        </mxCell>
        <mxCell id="VvKC9R2UhtkqxEphzzf7-620" value="&lt;div&gt;&amp;lt;&amp;lt;enumeration&amp;gt;&amp;gt;&lt;/div&gt;&lt;div&gt;LuggageType&lt;/div&gt;" style="swimlane;fontStyle=0;childLayout=stackLayout;horizontal=1;startSize=37;fillColor=none;horizontalStack=0;resizeParent=1;resizeParentMax=0;resizeLast=0;collapsible=1;marginBottom=0;whiteSpace=wrap;html=1;labelBackgroundColor=none;" vertex="1" parent="1">
          <mxGeometry x="502" y="46" width="140" height="97" as="geometry" />
        </mxCell>
        <mxCell id="VvKC9R2UhtkqxEphzzf7-621" value="carry_on" style="text;strokeColor=none;fillColor=none;align=left;verticalAlign=top;spacingLeft=4;spacingRight=4;overflow=hidden;rotatable=0;points=[[0,0.5],[1,0.5]];portConstraint=eastwest;whiteSpace=wrap;html=1;labelBackgroundColor=none;" vertex="1" parent="VvKC9R2UhtkqxEphzzf7-620">
          <mxGeometry y="37" width="140" height="30" as="geometry" />
        </mxCell>
        <mxCell id="VvKC9R2UhtkqxEphzzf7-622" value="checked" style="text;strokeColor=none;fillColor=none;align=left;verticalAlign=top;spacingLeft=4;spacingRight=4;overflow=hidden;rotatable=0;points=[[0,0.5],[1,0.5]];portConstraint=eastwest;whiteSpace=wrap;html=1;labelBackgroundColor=none;" vertex="1" parent="VvKC9R2UhtkqxEphzzf7-620">
          <mxGeometry y="67" width="140" height="30" as="geometry" />
        </mxCell>
        <mxCell id="VvKC9R2UhtkqxEphzzf7-623" value="" style="endArrow=none;html=1;rounded=0;entryX=0;entryY=0.333;entryDx=0;entryDy=0;exitX=1.003;exitY=0.323;exitDx=0;exitDy=0;exitPerimeter=0;entryPerimeter=0;labelBackgroundColor=none;" edge="1" parent="1" source="VvKC9R2UhtkqxEphzzf7-708" target="VvKC9R2UhtkqxEphzzf7-617">
          <mxGeometry relative="1" as="geometry">
            <mxPoint x="1322" y="328.5" as="sourcePoint" />
            <mxPoint x="1482" y="328.5" as="targetPoint" />
          </mxGeometry>
        </mxCell>
        <mxCell id="VvKC9R2UhtkqxEphzzf7-624" value="Admin" style="swimlane;fontStyle=0;childLayout=stackLayout;horizontal=1;startSize=26;fillColor=none;horizontalStack=0;resizeParent=1;resizeParentMax=0;resizeLast=0;collapsible=1;marginBottom=0;whiteSpace=wrap;html=1;align=center;labelBackgroundColor=none;" vertex="1" parent="1">
          <mxGeometry x="91" y="1905" width="140" height="116" as="geometry" />
        </mxCell>
        <mxCell id="VvKC9R2UhtkqxEphzzf7-625" value="&lt;div&gt;username&lt;span style=&quot;text-wrap-mode: wrap; color: light-dark(rgb(0, 0, 0), rgb(255, 255, 255));&quot;&gt;{id}&lt;/span&gt;&lt;/div&gt;" style="text;html=1;align=left;verticalAlign=middle;resizable=0;points=[];autosize=1;strokeColor=none;fillColor=none;labelBackgroundColor=none;" vertex="1" parent="VvKC9R2UhtkqxEphzzf7-624">
          <mxGeometry y="26" width="140" height="30" as="geometry" />
        </mxCell>
        <mxCell id="VvKC9R2UhtkqxEphzzf7-626" value="mail" style="text;html=1;align=left;verticalAlign=middle;resizable=0;points=[];autosize=1;strokeColor=none;fillColor=none;labelBackgroundColor=none;" vertex="1" parent="VvKC9R2UhtkqxEphzzf7-624">
          <mxGeometry y="56" width="140" height="30" as="geometry" />
        </mxCell>
        <mxCell id="VvKC9R2UhtkqxEphzzf7-627" value="password" style="text;html=1;align=left;verticalAlign=middle;resizable=0;points=[];autosize=1;strokeColor=none;fillColor=none;labelBackgroundColor=none;" vertex="1" parent="VvKC9R2UhtkqxEphzzf7-624">
          <mxGeometry y="86" width="140" height="30" as="geometry" />
        </mxCell>
        <mxCell id="VvKC9R2UhtkqxEphzzf7-628" style="rounded=0;orthogonalLoop=1;jettySize=auto;html=1;exitX=1;exitY=0.5;exitDx=0;exitDy=0;entryX=0;entryY=0.5;entryDx=0;entryDy=0;endArrow=none;startFill=0;labelBackgroundColor=none;" edge="1" parent="1" source="VvKC9R2UhtkqxEphzzf7-629" target="VvKC9R2UhtkqxEphzzf7-634">
          <mxGeometry relative="1" as="geometry" />
        </mxCell>
        <mxCell id="VvKC9R2UhtkqxEphzzf7-629" value="Customer" style="swimlane;fontStyle=0;childLayout=stackLayout;horizontal=1;startSize=26;fillColor=none;horizontalStack=0;resizeParent=1;resizeParentMax=0;resizeLast=0;collapsible=1;marginBottom=0;whiteSpace=wrap;html=1;labelBackgroundColor=none;" vertex="1" parent="1">
          <mxGeometry x="91" y="2055" width="140" height="116" as="geometry" />
        </mxCell>
        <mxCell id="VvKC9R2UhtkqxEphzzf7-630" value="username&lt;span style=&quot;text-wrap-mode: wrap;&quot;&gt;{id}&lt;/span&gt;" style="text;html=1;align=left;verticalAlign=middle;resizable=0;points=[];autosize=1;strokeColor=none;fillColor=none;labelBackgroundColor=none;" vertex="1" parent="VvKC9R2UhtkqxEphzzf7-629">
          <mxGeometry y="26" width="140" height="30" as="geometry" />
        </mxCell>
        <mxCell id="VvKC9R2UhtkqxEphzzf7-631" value="mail" style="text;html=1;align=left;verticalAlign=middle;resizable=0;points=[];autosize=1;strokeColor=none;fillColor=none;labelBackgroundColor=none;" vertex="1" parent="VvKC9R2UhtkqxEphzzf7-629">
          <mxGeometry y="56" width="140" height="30" as="geometry" />
        </mxCell>
        <mxCell id="VvKC9R2UhtkqxEphzzf7-632" value="password" style="text;html=1;align=left;verticalAlign=middle;resizable=0;points=[];autosize=1;strokeColor=none;fillColor=none;labelBackgroundColor=none;" vertex="1" parent="VvKC9R2UhtkqxEphzzf7-629">
          <mxGeometry y="86" width="140" height="30" as="geometry" />
        </mxCell>
        <mxCell id="VvKC9R2UhtkqxEphzzf7-633" style="rounded=0;orthogonalLoop=1;jettySize=auto;html=1;endArrow=none;startFill=0;labelBackgroundColor=none;exitX=0.569;exitY=-0.011;exitDx=0;exitDy=0;exitPerimeter=0;" edge="1" parent="1" source="VvKC9R2UhtkqxEphzzf7-718" target="VvKC9R2UhtkqxEphzzf7-634">
          <mxGeometry relative="1" as="geometry">
            <mxPoint x="381" y="1985" as="targetPoint" />
            <mxPoint x="411" y="2045" as="sourcePoint" />
          </mxGeometry>
        </mxCell>
        <mxCell id="VvKC9R2UhtkqxEphzzf7-634" value="Booking" style="swimlane;fontStyle=0;childLayout=stackLayout;horizontal=1;startSize=26;fillColor=none;horizontalStack=0;resizeParent=1;resizeParentMax=0;resizeLast=0;collapsible=1;marginBottom=0;whiteSpace=wrap;html=1;labelBackgroundColor=none;" vertex="1" parent="1">
          <mxGeometry x="421" y="2075" width="180" height="76" as="geometry" />
        </mxCell>
        <mxCell id="VvKC9R2UhtkqxEphzzf7-635" value="booking_status: BookingStatus" style="text;strokeColor=none;fillColor=none;align=left;verticalAlign=top;spacingLeft=4;spacingRight=4;overflow=hidden;rotatable=0;points=[[0,0.5],[1,0.5]];portConstraint=eastwest;whiteSpace=wrap;html=1;labelBackgroundColor=none;" vertex="1" parent="VvKC9R2UhtkqxEphzzf7-634">
          <mxGeometry y="26" width="180" height="20" as="geometry" />
        </mxCell>
        <mxCell id="VvKC9R2UhtkqxEphzzf7-636" value="booking_time" style="text;strokeColor=none;fillColor=none;align=left;verticalAlign=top;spacingLeft=4;spacingRight=4;overflow=hidden;rotatable=0;points=[[0,0.5],[1,0.5]];portConstraint=eastwest;whiteSpace=wrap;html=1;labelBackgroundColor=none;" vertex="1" parent="VvKC9R2UhtkqxEphzzf7-634">
          <mxGeometry y="46" width="180" height="30" as="geometry" />
        </mxCell>
        <mxCell id="VvKC9R2UhtkqxEphzzf7-637" value="1...1" style="text;strokeColor=none;align=center;fillColor=none;html=1;verticalAlign=middle;whiteSpace=wrap;rounded=0;labelBackgroundColor=none;" vertex="1" parent="1">
          <mxGeometry x="231" y="2085" width="60" height="30" as="geometry" />
        </mxCell>
        <mxCell id="VvKC9R2UhtkqxEphzzf7-638" value="0...*" style="text;strokeColor=none;align=center;fillColor=none;html=1;verticalAlign=middle;whiteSpace=wrap;rounded=0;labelBackgroundColor=none;" vertex="1" parent="1">
          <mxGeometry x="361" y="2085" width="60" height="30" as="geometry" />
        </mxCell>
        <mxCell id="VvKC9R2UhtkqxEphzzf7-639" value="Makes" style="text;strokeColor=none;align=center;fillColor=none;html=1;verticalAlign=middle;whiteSpace=wrap;rounded=0;labelBackgroundColor=none;" vertex="1" parent="1">
          <mxGeometry x="291" y="2085" width="60" height="30" as="geometry" />
        </mxCell>
        <mxCell id="VvKC9R2UhtkqxEphzzf7-640" value="Flight" style="swimlane;fontStyle=0;childLayout=stackLayout;horizontal=1;startSize=26;fillColor=none;horizontalStack=0;resizeParent=1;resizeParentMax=0;resizeLast=0;collapsible=1;marginBottom=0;whiteSpace=wrap;html=1;labelBackgroundColor=none;" vertex="1" parent="1">
          <mxGeometry x="811" y="2015" width="160" height="356" as="geometry" />
        </mxCell>
        <mxCell id="VvKC9R2UhtkqxEphzzf7-641" value="&lt;div&gt;id_flight&lt;span style=&quot;color: light-dark(rgb(0, 0, 0), rgb(255, 255, 255));&quot;&gt;{id}&lt;/span&gt;&lt;/div&gt;" style="text;strokeColor=none;fillColor=none;align=left;verticalAlign=top;spacingLeft=4;spacingRight=4;overflow=hidden;rotatable=0;points=[[0,0.5],[1,0.5]];portConstraint=eastwest;whiteSpace=wrap;html=1;labelBackgroundColor=none;" vertex="1" parent="VvKC9R2UhtkqxEphzzf7-640">
          <mxGeometry y="26" width="160" height="30" as="geometry" />
        </mxCell>
        <mxCell id="VvKC9R2UhtkqxEphzzf7-642" value="company_name" style="text;strokeColor=none;fillColor=none;align=left;verticalAlign=top;spacingLeft=4;spacingRight=4;overflow=hidden;rotatable=0;points=[[0,0.5],[1,0.5]];portConstraint=eastwest;whiteSpace=wrap;html=1;labelBackgroundColor=none;" vertex="1" parent="VvKC9R2UhtkqxEphzzf7-640">
          <mxGeometry y="56" width="160" height="30" as="geometry" />
        </mxCell>
        <mxCell id="VvKC9R2UhtkqxEphzzf7-643" value="date" style="text;strokeColor=none;fillColor=none;align=left;verticalAlign=top;spacingLeft=4;spacingRight=4;overflow=hidden;rotatable=0;points=[[0,0.5],[1,0.5]];portConstraint=eastwest;whiteSpace=wrap;html=1;labelBackgroundColor=none;" vertex="1" parent="VvKC9R2UhtkqxEphzzf7-640">
          <mxGeometry y="86" width="160" height="30" as="geometry" />
        </mxCell>
        <mxCell id="VvKC9R2UhtkqxEphzzf7-644" value="departure_time" style="text;strokeColor=none;fillColor=none;align=left;verticalAlign=top;spacingLeft=4;spacingRight=4;overflow=hidden;rotatable=0;points=[[0,0.5],[1,0.5]];portConstraint=eastwest;whiteSpace=wrap;html=1;labelBackgroundColor=none;" vertex="1" parent="VvKC9R2UhtkqxEphzzf7-640">
          <mxGeometry y="116" width="160" height="30" as="geometry" />
        </mxCell>
        <mxCell id="VvKC9R2UhtkqxEphzzf7-645" value="arrival_time" style="text;strokeColor=none;fillColor=none;align=left;verticalAlign=top;spacingLeft=4;spacingRight=4;overflow=hidden;rotatable=0;points=[[0,0.5],[1,0.5]];portConstraint=eastwest;whiteSpace=wrap;html=1;labelBackgroundColor=none;" vertex="1" parent="VvKC9R2UhtkqxEphzzf7-640">
          <mxGeometry y="146" width="160" height="30" as="geometry" />
        </mxCell>
        <mxCell id="VvKC9R2UhtkqxEphzzf7-646" value="flight_status: FlightStatus" style="text;strokeColor=none;fillColor=none;align=left;verticalAlign=top;spacingLeft=4;spacingRight=4;overflow=hidden;rotatable=0;points=[[0,0.5],[1,0.5]];portConstraint=eastwest;whiteSpace=wrap;html=1;labelBackgroundColor=none;" vertex="1" parent="VvKC9R2UhtkqxEphzzf7-640">
          <mxGeometry y="176" width="160" height="30" as="geometry" />
        </mxCell>
        <mxCell id="VvKC9R2UhtkqxEphzzf7-647" value="max_seats" style="text;strokeColor=none;fillColor=none;align=left;verticalAlign=top;spacingLeft=4;spacingRight=4;overflow=hidden;rotatable=0;points=[[0,0.5],[1,0.5]];portConstraint=eastwest;whiteSpace=wrap;html=1;labelBackgroundColor=none;" vertex="1" parent="VvKC9R2UhtkqxEphzzf7-640">
          <mxGeometry y="206" width="160" height="30" as="geometry" />
        </mxCell>
        <mxCell id="VvKC9R2UhtkqxEphzzf7-648" value="free_seats" style="text;strokeColor=none;fillColor=none;align=left;verticalAlign=top;spacingLeft=4;spacingRight=4;overflow=hidden;rotatable=0;points=[[0,0.5],[1,0.5]];portConstraint=eastwest;whiteSpace=wrap;html=1;labelBackgroundColor=none;" vertex="1" parent="VvKC9R2UhtkqxEphzzf7-640">
          <mxGeometry y="236" width="160" height="30" as="geometry" />
        </mxCell>
        <mxCell id="VvKC9R2UhtkqxEphzzf7-649" value="destination_or_origin" style="text;strokeColor=none;fillColor=none;align=left;verticalAlign=top;spacingLeft=4;spacingRight=4;overflow=hidden;rotatable=0;points=[[0,0.5],[1,0.5]];portConstraint=eastwest;whiteSpace=wrap;html=1;labelBackgroundColor=none;" vertex="1" parent="VvKC9R2UhtkqxEphzzf7-640">
          <mxGeometry y="266" width="160" height="30" as="geometry" />
        </mxCell>
        <mxCell id="VvKC9R2UhtkqxEphzzf7-650" value="delay[0...1]" style="text;strokeColor=none;fillColor=none;align=left;verticalAlign=top;spacingLeft=4;spacingRight=4;overflow=hidden;rotatable=0;points=[[0,0.5],[1,0.5]];portConstraint=eastwest;whiteSpace=wrap;html=1;labelBackgroundColor=none;" vertex="1" parent="VvKC9R2UhtkqxEphzzf7-640">
          <mxGeometry y="296" width="160" height="30" as="geometry" />
        </mxCell>
        <mxCell id="VvKC9R2UhtkqxEphzzf7-651" value="type" style="text;strokeColor=none;fillColor=none;align=left;verticalAlign=top;spacingLeft=4;spacingRight=4;overflow=hidden;rotatable=0;points=[[0,0.5],[1,0.5]];portConstraint=eastwest;whiteSpace=wrap;html=1;labelBackgroundColor=none;" vertex="1" parent="VvKC9R2UhtkqxEphzzf7-640">
          <mxGeometry y="326" width="160" height="30" as="geometry" />
        </mxCell>
        <mxCell id="VvKC9R2UhtkqxEphzzf7-652" style="rounded=0;orthogonalLoop=1;jettySize=auto;html=1;exitX=1;exitY=0.5;exitDx=0;exitDy=0;endArrow=none;startFill=0;entryX=0;entryY=0.5;entryDx=0;entryDy=0;labelBackgroundColor=none;" edge="1" parent="1" source="VvKC9R2UhtkqxEphzzf7-644" target="VvKC9R2UhtkqxEphzzf7-712">
          <mxGeometry relative="1" as="geometry">
            <mxPoint x="1061" y="2150" as="targetPoint" />
          </mxGeometry>
        </mxCell>
        <mxCell id="VvKC9R2UhtkqxEphzzf7-653" value="Gate" style="swimlane;fontStyle=0;childLayout=stackLayout;horizontal=1;startSize=26;fillColor=none;horizontalStack=0;resizeParent=1;resizeParentMax=0;resizeLast=0;collapsible=1;marginBottom=0;whiteSpace=wrap;html=1;labelBackgroundColor=none;" vertex="1" parent="1">
          <mxGeometry x="1151" y="2165" width="140" height="56" as="geometry" />
        </mxCell>
        <mxCell id="VvKC9R2UhtkqxEphzzf7-654" value="id_gate{id}" style="text;strokeColor=none;fillColor=none;align=left;verticalAlign=top;spacingLeft=4;spacingRight=4;overflow=hidden;rotatable=0;points=[[0,0.5],[1,0.5]];portConstraint=eastwest;whiteSpace=wrap;html=1;labelBackgroundColor=none;" vertex="1" parent="VvKC9R2UhtkqxEphzzf7-653">
          <mxGeometry y="26" width="140" height="30" as="geometry" />
        </mxCell>
        <mxCell id="VvKC9R2UhtkqxEphzzf7-655" value="" style="html=1;verticalAlign=bottom;endArrow=none;curved=0;rounded=0;startFill=0;labelBackgroundColor=none;" edge="1" parent="1" source="VvKC9R2UhtkqxEphzzf7-653" target="VvKC9R2UhtkqxEphzzf7-640">
          <mxGeometry width="80" relative="1" as="geometry">
            <mxPoint x="511" y="2455.5699999999997" as="sourcePoint" />
            <mxPoint x="650.3000000000002" y="2457.09" as="targetPoint" />
          </mxGeometry>
        </mxCell>
        <mxCell id="VvKC9R2UhtkqxEphzzf7-656" value="0...1" style="text;html=1;align=center;verticalAlign=middle;resizable=0;points=[];autosize=1;strokeColor=none;fillColor=none;labelBackgroundColor=none;" vertex="1" parent="1">
          <mxGeometry x="1101" y="2195" width="50" height="30" as="geometry" />
        </mxCell>
        <mxCell id="VvKC9R2UhtkqxEphzzf7-657" value="0...*" style="text;html=1;align=center;verticalAlign=middle;resizable=0;points=[];autosize=1;strokeColor=none;fillColor=none;labelBackgroundColor=none;" vertex="1" parent="1">
          <mxGeometry x="971" y="2195" width="40" height="30" as="geometry" />
        </mxCell>
        <mxCell id="VvKC9R2UhtkqxEphzzf7-658" value="" style="endArrow=none;endFill=1;html=1;align=left;verticalAlign=top;rounded=0;exitX=1.002;exitY=0.009;exitDx=0;exitDy=0;exitPerimeter=0;entryX=0;entryY=0.5;entryDx=0;entryDy=0;labelBackgroundColor=none;startFill=0;" edge="1" parent="1" source="VvKC9R2UhtkqxEphzzf7-635" target="VvKC9R2UhtkqxEphzzf7-644">
          <mxGeometry x="-1" relative="1" as="geometry">
            <mxPoint x="631" y="2057" as="sourcePoint" />
            <mxPoint x="791" y="2057" as="targetPoint" />
          </mxGeometry>
        </mxCell>
        <mxCell id="VvKC9R2UhtkqxEphzzf7-659" value="0...*" style="edgeLabel;resizable=0;html=1;align=left;verticalAlign=bottom;labelBackgroundColor=none;" connectable="0" vertex="1" parent="VvKC9R2UhtkqxEphzzf7-658">
          <mxGeometry relative="1" as="geometry">
            <mxPoint x="-95" y="2" as="offset" />
          </mxGeometry>
        </mxCell>
        <mxCell id="VvKC9R2UhtkqxEphzzf7-660" value="1...1" style="text;html=1;align=center;verticalAlign=middle;resizable=0;points=[];autosize=1;strokeColor=none;fillColor=none;labelBackgroundColor=none;" vertex="1" parent="1">
          <mxGeometry x="761" y="2135" width="50" height="30" as="geometry" />
        </mxCell>
        <mxCell id="VvKC9R2UhtkqxEphzzf7-661" value="For" style="text;html=1;align=center;verticalAlign=middle;resizable=0;points=[];autosize=1;strokeColor=none;fillColor=none;labelBackgroundColor=none;" vertex="1" parent="1">
          <mxGeometry x="661" y="2125" width="40" height="30" as="geometry" />
        </mxCell>
        <mxCell id="VvKC9R2UhtkqxEphzzf7-662" value="From" style="text;html=1;align=center;verticalAlign=middle;resizable=0;points=[];autosize=1;strokeColor=none;fillColor=none;labelBackgroundColor=none;" vertex="1" parent="1">
          <mxGeometry x="1032" y="2205" width="50" height="30" as="geometry" />
        </mxCell>
        <mxCell id="VvKC9R2UhtkqxEphzzf7-663" value="Admin" style="swimlane;fontStyle=0;childLayout=stackLayout;horizontal=1;startSize=26;fillColor=none;horizontalStack=0;resizeParent=1;resizeParentMax=0;resizeLast=0;collapsible=1;marginBottom=0;whiteSpace=wrap;html=1;align=center;labelBackgroundColor=none;" vertex="1" parent="1">
          <mxGeometry x="111" y="3225" width="140" height="116" as="geometry" />
        </mxCell>
        <mxCell id="VvKC9R2UhtkqxEphzzf7-664" value="&lt;div&gt;username&lt;span style=&quot;text-wrap-mode: wrap; color: light-dark(rgb(0, 0, 0), rgb(255, 255, 255));&quot;&gt;{id}&lt;/span&gt;&lt;/div&gt;" style="text;html=1;align=left;verticalAlign=middle;resizable=0;points=[];autosize=1;strokeColor=none;fillColor=none;labelBackgroundColor=none;" vertex="1" parent="VvKC9R2UhtkqxEphzzf7-663">
          <mxGeometry y="26" width="140" height="30" as="geometry" />
        </mxCell>
        <mxCell id="VvKC9R2UhtkqxEphzzf7-665" value="mail" style="text;html=1;align=left;verticalAlign=middle;resizable=0;points=[];autosize=1;strokeColor=none;fillColor=none;labelBackgroundColor=none;" vertex="1" parent="VvKC9R2UhtkqxEphzzf7-663">
          <mxGeometry y="56" width="140" height="30" as="geometry" />
        </mxCell>
        <mxCell id="VvKC9R2UhtkqxEphzzf7-666" value="hashed_password" style="text;html=1;align=left;verticalAlign=middle;resizable=0;points=[];autosize=1;strokeColor=none;fillColor=none;labelBackgroundColor=none;" vertex="1" parent="VvKC9R2UhtkqxEphzzf7-663">
          <mxGeometry y="86" width="140" height="30" as="geometry" />
        </mxCell>
        <mxCell id="VvKC9R2UhtkqxEphzzf7-667" style="rounded=0;orthogonalLoop=1;jettySize=auto;html=1;exitX=1;exitY=0.5;exitDx=0;exitDy=0;entryX=0;entryY=0.5;entryDx=0;entryDy=0;endArrow=none;startFill=0;labelBackgroundColor=none;" edge="1" parent="1" source="VvKC9R2UhtkqxEphzzf7-668" target="VvKC9R2UhtkqxEphzzf7-673">
          <mxGeometry relative="1" as="geometry" />
        </mxCell>
        <mxCell id="VvKC9R2UhtkqxEphzzf7-668" value="Customer" style="swimlane;fontStyle=0;childLayout=stackLayout;horizontal=1;startSize=26;fillColor=none;horizontalStack=0;resizeParent=1;resizeParentMax=0;resizeLast=0;collapsible=1;marginBottom=0;whiteSpace=wrap;html=1;labelBackgroundColor=none;" vertex="1" parent="1">
          <mxGeometry x="111" y="3385" width="140" height="116" as="geometry" />
        </mxCell>
        <mxCell id="VvKC9R2UhtkqxEphzzf7-669" value="username&lt;span style=&quot;text-wrap-mode: wrap;&quot;&gt;{id}&lt;/span&gt;" style="text;html=1;align=left;verticalAlign=middle;resizable=0;points=[];autosize=1;strokeColor=none;fillColor=none;labelBackgroundColor=none;" vertex="1" parent="VvKC9R2UhtkqxEphzzf7-668">
          <mxGeometry y="26" width="140" height="30" as="geometry" />
        </mxCell>
        <mxCell id="VvKC9R2UhtkqxEphzzf7-670" value="mail[0...1]" style="text;html=1;align=left;verticalAlign=middle;resizable=0;points=[];autosize=1;strokeColor=none;fillColor=none;labelBackgroundColor=none;" vertex="1" parent="VvKC9R2UhtkqxEphzzf7-668">
          <mxGeometry y="56" width="140" height="30" as="geometry" />
        </mxCell>
        <mxCell id="VvKC9R2UhtkqxEphzzf7-671" value="hashed_password" style="text;html=1;align=left;verticalAlign=middle;resizable=0;points=[];autosize=1;strokeColor=none;fillColor=none;labelBackgroundColor=none;" vertex="1" parent="VvKC9R2UhtkqxEphzzf7-668">
          <mxGeometry y="86" width="140" height="30" as="geometry" />
        </mxCell>
        <mxCell id="VvKC9R2UhtkqxEphzzf7-672" style="rounded=0;orthogonalLoop=1;jettySize=auto;html=1;endArrow=none;startFill=0;labelBackgroundColor=none;" edge="1" parent="1" source="VvKC9R2UhtkqxEphzzf7-673" target="VvKC9R2UhtkqxEphzzf7-722">
          <mxGeometry relative="1" as="geometry">
            <mxPoint x="551" y="3315" as="targetPoint" />
          </mxGeometry>
        </mxCell>
        <mxCell id="VvKC9R2UhtkqxEphzzf7-673" value="Booking" style="swimlane;fontStyle=0;childLayout=stackLayout;horizontal=1;startSize=26;fillColor=none;horizontalStack=0;resizeParent=1;resizeParentMax=0;resizeLast=0;collapsible=1;marginBottom=0;whiteSpace=wrap;html=1;labelBackgroundColor=none;" vertex="1" parent="1">
          <mxGeometry x="441" y="3385" width="180" height="86" as="geometry" />
        </mxCell>
        <mxCell id="VvKC9R2UhtkqxEphzzf7-674" value="booking_status: BookingStatus" style="text;strokeColor=none;fillColor=none;align=left;verticalAlign=top;spacingLeft=4;spacingRight=4;overflow=hidden;rotatable=0;points=[[0,0.5],[1,0.5]];portConstraint=eastwest;whiteSpace=wrap;html=1;labelBackgroundColor=none;" vertex="1" parent="VvKC9R2UhtkqxEphzzf7-673">
          <mxGeometry y="26" width="180" height="30" as="geometry" />
        </mxCell>
        <mxCell id="VvKC9R2UhtkqxEphzzf7-675" value="booking_time" style="text;strokeColor=none;fillColor=none;align=left;verticalAlign=top;spacingLeft=4;spacingRight=4;overflow=hidden;rotatable=0;points=[[0,0.5],[1,0.5]];portConstraint=eastwest;whiteSpace=wrap;html=1;labelBackgroundColor=none;" vertex="1" parent="VvKC9R2UhtkqxEphzzf7-673">
          <mxGeometry y="56" width="180" height="30" as="geometry" />
        </mxCell>
        <mxCell id="VvKC9R2UhtkqxEphzzf7-676" value="1...1" style="text;strokeColor=none;align=center;fillColor=none;html=1;verticalAlign=middle;whiteSpace=wrap;rounded=0;labelBackgroundColor=none;" vertex="1" parent="1">
          <mxGeometry x="251" y="3405" width="60" height="30" as="geometry" />
        </mxCell>
        <mxCell id="VvKC9R2UhtkqxEphzzf7-677" value="0...*" style="text;strokeColor=none;align=center;fillColor=none;html=1;verticalAlign=middle;whiteSpace=wrap;rounded=0;labelBackgroundColor=none;" vertex="1" parent="1">
          <mxGeometry x="391" y="3405" width="60" height="30" as="geometry" />
        </mxCell>
        <mxCell id="VvKC9R2UhtkqxEphzzf7-678" value="Makes" style="text;strokeColor=none;align=center;fillColor=none;html=1;verticalAlign=middle;whiteSpace=wrap;rounded=0;labelBackgroundColor=none;" vertex="1" parent="1">
          <mxGeometry x="321" y="3405" width="60" height="30" as="geometry" />
        </mxCell>
        <mxCell id="VvKC9R2UhtkqxEphzzf7-679" value="Flight" style="swimlane;fontStyle=0;childLayout=stackLayout;horizontal=1;startSize=26;fillColor=none;horizontalStack=0;resizeParent=1;resizeParentMax=0;resizeLast=0;collapsible=1;marginBottom=0;whiteSpace=wrap;html=1;labelBackgroundColor=none;" vertex="1" parent="1">
          <mxGeometry x="831" y="3335" width="160" height="386" as="geometry" />
        </mxCell>
        <mxCell id="VvKC9R2UhtkqxEphzzf7-680" value="&lt;div&gt;id_flight&lt;span style=&quot;color: light-dark(rgb(0, 0, 0), rgb(255, 255, 255));&quot;&gt;{id}&lt;/span&gt;&lt;/div&gt;" style="text;strokeColor=none;fillColor=none;align=left;verticalAlign=top;spacingLeft=4;spacingRight=4;overflow=hidden;rotatable=0;points=[[0,0.5],[1,0.5]];portConstraint=eastwest;whiteSpace=wrap;html=1;labelBackgroundColor=none;" vertex="1" parent="VvKC9R2UhtkqxEphzzf7-679">
          <mxGeometry y="26" width="160" height="30" as="geometry" />
        </mxCell>
        <mxCell id="VvKC9R2UhtkqxEphzzf7-681" value="company_name" style="text;strokeColor=none;fillColor=none;align=left;verticalAlign=top;spacingLeft=4;spacingRight=4;overflow=hidden;rotatable=0;points=[[0,0.5],[1,0.5]];portConstraint=eastwest;whiteSpace=wrap;html=1;labelBackgroundColor=none;" vertex="1" parent="VvKC9R2UhtkqxEphzzf7-679">
          <mxGeometry y="56" width="160" height="30" as="geometry" />
        </mxCell>
        <mxCell id="VvKC9R2UhtkqxEphzzf7-682" value="flight_date" style="text;strokeColor=none;fillColor=none;align=left;verticalAlign=top;spacingLeft=4;spacingRight=4;overflow=hidden;rotatable=0;points=[[0,0.5],[1,0.5]];portConstraint=eastwest;whiteSpace=wrap;html=1;labelBackgroundColor=none;" vertex="1" parent="VvKC9R2UhtkqxEphzzf7-679">
          <mxGeometry y="86" width="160" height="30" as="geometry" />
        </mxCell>
        <mxCell id="VvKC9R2UhtkqxEphzzf7-683" value="departure_time" style="text;strokeColor=none;fillColor=none;align=left;verticalAlign=top;spacingLeft=4;spacingRight=4;overflow=hidden;rotatable=0;points=[[0,0.5],[1,0.5]];portConstraint=eastwest;whiteSpace=wrap;html=1;labelBackgroundColor=none;" vertex="1" parent="VvKC9R2UhtkqxEphzzf7-679">
          <mxGeometry y="116" width="160" height="30" as="geometry" />
        </mxCell>
        <mxCell id="VvKC9R2UhtkqxEphzzf7-684" value="arrival_time" style="text;strokeColor=none;fillColor=none;align=left;verticalAlign=top;spacingLeft=4;spacingRight=4;overflow=hidden;rotatable=0;points=[[0,0.5],[1,0.5]];portConstraint=eastwest;whiteSpace=wrap;html=1;labelBackgroundColor=none;" vertex="1" parent="VvKC9R2UhtkqxEphzzf7-679">
          <mxGeometry y="146" width="160" height="30" as="geometry" />
        </mxCell>
        <mxCell id="VvKC9R2UhtkqxEphzzf7-685" value="flight_status: FlightStatus" style="text;strokeColor=none;fillColor=none;align=left;verticalAlign=top;spacingLeft=4;spacingRight=4;overflow=hidden;rotatable=0;points=[[0,0.5],[1,0.5]];portConstraint=eastwest;whiteSpace=wrap;html=1;labelBackgroundColor=none;" vertex="1" parent="VvKC9R2UhtkqxEphzzf7-679">
          <mxGeometry y="176" width="160" height="30" as="geometry" />
        </mxCell>
        <mxCell id="VvKC9R2UhtkqxEphzzf7-686" value="max_seats" style="text;strokeColor=none;fillColor=none;align=left;verticalAlign=top;spacingLeft=4;spacingRight=4;overflow=hidden;rotatable=0;points=[[0,0.5],[1,0.5]];portConstraint=eastwest;whiteSpace=wrap;html=1;labelBackgroundColor=none;" vertex="1" parent="VvKC9R2UhtkqxEphzzf7-679">
          <mxGeometry y="206" width="160" height="30" as="geometry" />
        </mxCell>
        <mxCell id="VvKC9R2UhtkqxEphzzf7-687" value="free_seats" style="text;strokeColor=none;fillColor=none;align=left;verticalAlign=top;spacingLeft=4;spacingRight=4;overflow=hidden;rotatable=0;points=[[0,0.5],[1,0.5]];portConstraint=eastwest;whiteSpace=wrap;html=1;labelBackgroundColor=none;" vertex="1" parent="VvKC9R2UhtkqxEphzzf7-679">
          <mxGeometry y="236" width="160" height="30" as="geometry" />
        </mxCell>
        <mxCell id="VvKC9R2UhtkqxEphzzf7-688" value="destination_or_origin" style="text;strokeColor=none;fillColor=none;align=left;verticalAlign=top;spacingLeft=4;spacingRight=4;overflow=hidden;rotatable=0;points=[[0,0.5],[1,0.5]];portConstraint=eastwest;whiteSpace=wrap;html=1;labelBackgroundColor=none;" vertex="1" parent="VvKC9R2UhtkqxEphzzf7-679">
          <mxGeometry y="266" width="160" height="30" as="geometry" />
        </mxCell>
        <mxCell id="VvKC9R2UhtkqxEphzzf7-689" value="flight_delay[0...1]" style="text;strokeColor=none;fillColor=none;align=left;verticalAlign=top;spacingLeft=4;spacingRight=4;overflow=hidden;rotatable=0;points=[[0,0.5],[1,0.5]];portConstraint=eastwest;whiteSpace=wrap;html=1;labelBackgroundColor=none;" vertex="1" parent="VvKC9R2UhtkqxEphzzf7-679">
          <mxGeometry y="296" width="160" height="30" as="geometry" />
        </mxCell>
        <mxCell id="VvKC9R2UhtkqxEphzzf7-690" value="flight_type" style="text;strokeColor=none;fillColor=none;align=left;verticalAlign=top;spacingLeft=4;spacingRight=4;overflow=hidden;rotatable=0;points=[[0,0.5],[1,0.5]];portConstraint=eastwest;whiteSpace=wrap;html=1;labelBackgroundColor=none;" vertex="1" parent="VvKC9R2UhtkqxEphzzf7-679">
          <mxGeometry y="326" width="160" height="30" as="geometry" />
        </mxCell>
        <mxCell id="VvKC9R2UhtkqxEphzzf7-691" value="id_gate[0...1]" style="text;strokeColor=none;fillColor=none;align=left;verticalAlign=top;spacingLeft=4;spacingRight=4;overflow=hidden;rotatable=0;points=[[0,0.5],[1,0.5]];portConstraint=eastwest;whiteSpace=wrap;html=1;labelBackgroundColor=none;" vertex="1" parent="VvKC9R2UhtkqxEphzzf7-679">
          <mxGeometry y="356" width="160" height="30" as="geometry" />
        </mxCell>
        <mxCell id="VvKC9R2UhtkqxEphzzf7-692" style="rounded=0;orthogonalLoop=1;jettySize=auto;html=1;exitX=1;exitY=0.5;exitDx=0;exitDy=0;endArrow=none;startFill=0;labelBackgroundColor=none;" edge="1" parent="1" source="VvKC9R2UhtkqxEphzzf7-683" target="VvKC9R2UhtkqxEphzzf7-784">
          <mxGeometry relative="1" as="geometry">
            <mxPoint x="1081" y="3480" as="targetPoint" />
          </mxGeometry>
        </mxCell>
        <mxCell id="VvKC9R2UhtkqxEphzzf7-693" value="" style="endArrow=none;endFill=1;html=1;align=left;verticalAlign=top;rounded=0;exitX=1.002;exitY=0.009;exitDx=0;exitDy=0;exitPerimeter=0;entryX=0;entryY=0.5;entryDx=0;entryDy=0;labelBackgroundColor=none;startFill=0;" edge="1" parent="1" source="VvKC9R2UhtkqxEphzzf7-674" target="VvKC9R2UhtkqxEphzzf7-683">
          <mxGeometry x="-1" relative="1" as="geometry">
            <mxPoint x="651" y="3375" as="sourcePoint" />
            <mxPoint x="811" y="3375" as="targetPoint" />
          </mxGeometry>
        </mxCell>
        <mxCell id="VvKC9R2UhtkqxEphzzf7-694" value="0...*" style="edgeLabel;resizable=0;html=1;align=left;verticalAlign=bottom;labelBackgroundColor=none;" connectable="0" vertex="1" parent="VvKC9R2UhtkqxEphzzf7-693">
          <mxGeometry relative="1" as="geometry">
            <mxPoint x="-96" y="-28" as="offset" />
          </mxGeometry>
        </mxCell>
        <mxCell id="VvKC9R2UhtkqxEphzzf7-695" value="1...1" style="text;html=1;align=center;verticalAlign=middle;resizable=0;points=[];autosize=1;strokeColor=none;fillColor=none;labelBackgroundColor=none;" vertex="1" parent="1">
          <mxGeometry x="781" y="3455" width="50" height="30" as="geometry" />
        </mxCell>
        <mxCell id="VvKC9R2UhtkqxEphzzf7-696" value="For" style="text;html=1;align=center;verticalAlign=middle;resizable=0;points=[];autosize=1;strokeColor=none;fillColor=none;labelBackgroundColor=none;" vertex="1" parent="1">
          <mxGeometry x="681" y="3445" width="40" height="30" as="geometry" />
        </mxCell>
        <mxCell id="VvKC9R2UhtkqxEphzzf7-697" value="&lt;div&gt;&amp;lt;&amp;lt;enumeration&amp;gt;&amp;gt;&lt;/div&gt;&lt;div&gt;FlightStatus&lt;/div&gt;" style="swimlane;fontStyle=0;childLayout=stackLayout;horizontal=1;startSize=40;fillColor=none;horizontalStack=0;resizeParent=1;resizeParentMax=0;resizeLast=0;collapsible=1;marginBottom=0;whiteSpace=wrap;html=1;labelBackgroundColor=none;" vertex="1" parent="1">
          <mxGeometry x="1046" y="257" width="140" height="250" as="geometry" />
        </mxCell>
        <mxCell id="VvKC9R2UhtkqxEphzzf7-698" value="programmed" style="text;strokeColor=none;fillColor=none;align=left;verticalAlign=top;spacingLeft=4;spacingRight=4;overflow=hidden;rotatable=0;points=[[0,0.5],[1,0.5]];portConstraint=eastwest;whiteSpace=wrap;html=1;labelBackgroundColor=none;" vertex="1" parent="VvKC9R2UhtkqxEphzzf7-697">
          <mxGeometry y="40" width="140" height="30" as="geometry" />
        </mxCell>
        <mxCell id="VvKC9R2UhtkqxEphzzf7-699" value="cancelled" style="text;strokeColor=none;fillColor=none;align=left;verticalAlign=top;spacingLeft=4;spacingRight=4;overflow=hidden;rotatable=0;points=[[0,0.5],[1,0.5]];portConstraint=eastwest;whiteSpace=wrap;html=1;labelBackgroundColor=none;" vertex="1" parent="VvKC9R2UhtkqxEphzzf7-697">
          <mxGeometry y="70" width="140" height="30" as="geometry" />
        </mxCell>
        <mxCell id="VvKC9R2UhtkqxEphzzf7-700" value="delayed" style="text;strokeColor=none;fillColor=none;align=left;verticalAlign=top;spacingLeft=4;spacingRight=4;overflow=hidden;rotatable=0;points=[[0,0.5],[1,0.5]];portConstraint=eastwest;whiteSpace=wrap;html=1;labelBackgroundColor=none;" vertex="1" parent="VvKC9R2UhtkqxEphzzf7-697">
          <mxGeometry y="100" width="140" height="30" as="geometry" />
        </mxCell>
        <mxCell id="VvKC9R2UhtkqxEphzzf7-701" value="aboutToDepart" style="text;strokeColor=none;fillColor=none;align=left;verticalAlign=top;spacingLeft=4;spacingRight=4;overflow=hidden;rotatable=0;points=[[0,0.5],[1,0.5]];portConstraint=eastwest;whiteSpace=wrap;html=1;labelBackgroundColor=none;" vertex="1" parent="VvKC9R2UhtkqxEphzzf7-697">
          <mxGeometry y="130" width="140" height="30" as="geometry" />
        </mxCell>
        <mxCell id="VvKC9R2UhtkqxEphzzf7-702" value="departed" style="text;strokeColor=none;fillColor=none;align=left;verticalAlign=top;spacingLeft=4;spacingRight=4;overflow=hidden;rotatable=0;points=[[0,0.5],[1,0.5]];portConstraint=eastwest;whiteSpace=wrap;html=1;labelBackgroundColor=none;" vertex="1" parent="VvKC9R2UhtkqxEphzzf7-697">
          <mxGeometry y="160" width="140" height="30" as="geometry" />
        </mxCell>
        <mxCell id="VvKC9R2UhtkqxEphzzf7-703" value="aboutToArrive" style="text;strokeColor=none;fillColor=none;align=left;verticalAlign=top;spacingLeft=4;spacingRight=4;overflow=hidden;rotatable=0;points=[[0,0.5],[1,0.5]];portConstraint=eastwest;whiteSpace=wrap;html=1;labelBackgroundColor=none;" vertex="1" parent="VvKC9R2UhtkqxEphzzf7-697">
          <mxGeometry y="190" width="140" height="30" as="geometry" />
        </mxCell>
        <mxCell id="VvKC9R2UhtkqxEphzzf7-704" value="landed" style="text;strokeColor=none;fillColor=none;align=left;verticalAlign=top;spacingLeft=4;spacingRight=4;overflow=hidden;rotatable=0;points=[[0,0.5],[1,0.5]];portConstraint=eastwest;whiteSpace=wrap;html=1;labelBackgroundColor=none;" vertex="1" parent="VvKC9R2UhtkqxEphzzf7-697">
          <mxGeometry y="220" width="140" height="30" as="geometry" />
        </mxCell>
        <mxCell id="VvKC9R2UhtkqxEphzzf7-705" value="" style="group;labelBackgroundColor=none;" vertex="1" connectable="0" parent="1">
          <mxGeometry x="702" y="27" width="190" height="116" as="geometry" />
        </mxCell>
        <mxCell id="VvKC9R2UhtkqxEphzzf7-706" value="Luggage" style="swimlane;fontStyle=0;childLayout=stackLayout;horizontal=1;startSize=26;fillColor=none;horizontalStack=0;resizeParent=1;resizeParentMax=0;resizeLast=0;collapsible=1;marginBottom=0;whiteSpace=wrap;html=1;points=[[0,0,0,0,0],[0,0.25,0,0,0],[0,0.5,0,0,0],[0,0.75,0,0,0],[0,1,0,0,0],[0.25,0,0,0,0],[0.25,1,0,0,0],[0.5,0,0,0,0],[0.5,1,0,0,0],[0.75,0,0,0,0],[0.75,1,0,0,0],[1,0,0,0,0],[1,0.25,0,0,0],[1,0.5,0,0,0],[1,0.75,0,0,0],[1,1,0,0,0]];container=0;labelBackgroundColor=none;" vertex="1" parent="VvKC9R2UhtkqxEphzzf7-705">
          <mxGeometry width="190" height="116" as="geometry" />
        </mxCell>
        <mxCell id="VvKC9R2UhtkqxEphzzf7-707" value="id_luggage_after_check_in[0...1]" style="text;strokeColor=none;fillColor=none;align=left;verticalAlign=top;spacingLeft=4;spacingRight=4;overflow=hidden;rotatable=0;points=[[0,0.5],[1,0.5]];portConstraint=eastwest;whiteSpace=wrap;html=1;labelBackgroundColor=none;" vertex="1" parent="VvKC9R2UhtkqxEphzzf7-705">
          <mxGeometry y="26" width="190" height="30" as="geometry" />
        </mxCell>
        <mxCell id="VvKC9R2UhtkqxEphzzf7-708" value="type: LuggageType[0...1]" style="text;strokeColor=none;fillColor=none;align=left;verticalAlign=top;spacingLeft=4;spacingRight=4;overflow=hidden;rotatable=0;points=[[0,0.5],[1,0.5]];portConstraint=eastwest;whiteSpace=wrap;html=1;labelBackgroundColor=none;" vertex="1" parent="VvKC9R2UhtkqxEphzzf7-705">
          <mxGeometry y="56" width="190" height="30" as="geometry" />
        </mxCell>
        <mxCell id="VvKC9R2UhtkqxEphzzf7-709" value="luggage_status: LuggageStatus" style="text;strokeColor=none;fillColor=none;align=left;verticalAlign=top;spacingLeft=4;spacingRight=4;overflow=hidden;rotatable=0;points=[[0,0.5],[1,0.5]];portConstraint=eastwest;whiteSpace=wrap;html=1;labelBackgroundColor=none;" vertex="1" parent="VvKC9R2UhtkqxEphzzf7-705">
          <mxGeometry y="86" width="190" height="30" as="geometry" />
        </mxCell>
        <mxCell id="VvKC9R2UhtkqxEphzzf7-710" value="&lt;div&gt;&amp;lt;&amp;lt;enumeration&amp;gt;&amp;gt;&lt;/div&gt;&lt;div&gt;FlightStatus&lt;/div&gt;" style="swimlane;fontStyle=0;childLayout=stackLayout;horizontal=1;startSize=40;fillColor=none;horizontalStack=0;resizeParent=1;resizeParentMax=0;resizeLast=0;collapsible=1;marginBottom=0;whiteSpace=wrap;html=1;labelBackgroundColor=none;" vertex="1" parent="1">
          <mxGeometry x="1081" y="1765" width="180" height="250" as="geometry" />
        </mxCell>
        <mxCell id="VvKC9R2UhtkqxEphzzf7-711" value="programmed" style="text;strokeColor=none;fillColor=none;align=left;verticalAlign=top;spacingLeft=4;spacingRight=4;overflow=hidden;rotatable=0;points=[[0,0.5],[1,0.5]];portConstraint=eastwest;whiteSpace=wrap;html=1;labelBackgroundColor=none;" vertex="1" parent="VvKC9R2UhtkqxEphzzf7-710">
          <mxGeometry y="40" width="180" height="30" as="geometry" />
        </mxCell>
        <mxCell id="VvKC9R2UhtkqxEphzzf7-712" value="cancelled" style="text;strokeColor=none;fillColor=none;align=left;verticalAlign=top;spacingLeft=4;spacingRight=4;overflow=hidden;rotatable=0;points=[[0,0.5],[1,0.5]];portConstraint=eastwest;whiteSpace=wrap;html=1;labelBackgroundColor=none;" vertex="1" parent="VvKC9R2UhtkqxEphzzf7-710">
          <mxGeometry y="70" width="180" height="30" as="geometry" />
        </mxCell>
        <mxCell id="VvKC9R2UhtkqxEphzzf7-713" value="delayed" style="text;strokeColor=none;fillColor=none;align=left;verticalAlign=top;spacingLeft=4;spacingRight=4;overflow=hidden;rotatable=0;points=[[0,0.5],[1,0.5]];portConstraint=eastwest;whiteSpace=wrap;html=1;labelBackgroundColor=none;" vertex="1" parent="VvKC9R2UhtkqxEphzzf7-710">
          <mxGeometry y="100" width="180" height="30" as="geometry" />
        </mxCell>
        <mxCell id="VvKC9R2UhtkqxEphzzf7-714" value="aboutToDepart" style="text;strokeColor=none;fillColor=none;align=left;verticalAlign=top;spacingLeft=4;spacingRight=4;overflow=hidden;rotatable=0;points=[[0,0.5],[1,0.5]];portConstraint=eastwest;whiteSpace=wrap;html=1;labelBackgroundColor=none;" vertex="1" parent="VvKC9R2UhtkqxEphzzf7-710">
          <mxGeometry y="130" width="180" height="30" as="geometry" />
        </mxCell>
        <mxCell id="VvKC9R2UhtkqxEphzzf7-715" value="departed" style="text;strokeColor=none;fillColor=none;align=left;verticalAlign=top;spacingLeft=4;spacingRight=4;overflow=hidden;rotatable=0;points=[[0,0.5],[1,0.5]];portConstraint=eastwest;whiteSpace=wrap;html=1;labelBackgroundColor=none;" vertex="1" parent="VvKC9R2UhtkqxEphzzf7-710">
          <mxGeometry y="160" width="180" height="30" as="geometry" />
        </mxCell>
        <mxCell id="VvKC9R2UhtkqxEphzzf7-716" value="aboutToArrive" style="text;strokeColor=none;fillColor=none;align=left;verticalAlign=top;spacingLeft=4;spacingRight=4;overflow=hidden;rotatable=0;points=[[0,0.5],[1,0.5]];portConstraint=eastwest;whiteSpace=wrap;html=1;labelBackgroundColor=none;" vertex="1" parent="VvKC9R2UhtkqxEphzzf7-710">
          <mxGeometry y="190" width="180" height="30" as="geometry" />
        </mxCell>
        <mxCell id="VvKC9R2UhtkqxEphzzf7-717" value="landed" style="text;strokeColor=none;fillColor=none;align=left;verticalAlign=top;spacingLeft=4;spacingRight=4;overflow=hidden;rotatable=0;points=[[0,0.5],[1,0.5]];portConstraint=eastwest;whiteSpace=wrap;html=1;labelBackgroundColor=none;" vertex="1" parent="VvKC9R2UhtkqxEphzzf7-710">
          <mxGeometry y="220" width="180" height="30" as="geometry" />
        </mxCell>
        <mxCell id="VvKC9R2UhtkqxEphzzf7-718" value="&lt;div&gt;&amp;lt;&amp;lt;enumeration&amp;gt;&amp;gt;&lt;/div&gt;&lt;div&gt;BookingStatus&lt;/div&gt;" style="swimlane;fontStyle=1;align=center;verticalAlign=top;childLayout=stackLayout;horizontal=1;startSize=50;horizontalStack=0;resizeParent=1;resizeParentMax=0;resizeLast=0;collapsible=1;marginBottom=0;whiteSpace=wrap;html=1;labelBackgroundColor=none;" vertex="1" parent="1">
          <mxGeometry x="421" y="2205" width="160" height="140" as="geometry" />
        </mxCell>
        <mxCell id="VvKC9R2UhtkqxEphzzf7-719" value="confirmed" style="text;strokeColor=none;fillColor=none;align=left;verticalAlign=top;spacingLeft=4;spacingRight=4;overflow=hidden;rotatable=0;points=[[0,0.5],[1,0.5]];portConstraint=eastwest;whiteSpace=wrap;html=1;labelBackgroundColor=none;" vertex="1" parent="VvKC9R2UhtkqxEphzzf7-718">
          <mxGeometry y="50" width="160" height="30" as="geometry" />
        </mxCell>
        <mxCell id="VvKC9R2UhtkqxEphzzf7-720" value="pending" style="text;strokeColor=none;fillColor=none;align=left;verticalAlign=top;spacingLeft=4;spacingRight=4;overflow=hidden;rotatable=0;points=[[0,0.5],[1,0.5]];portConstraint=eastwest;whiteSpace=wrap;html=1;labelBackgroundColor=none;" vertex="1" parent="VvKC9R2UhtkqxEphzzf7-718">
          <mxGeometry y="80" width="160" height="30" as="geometry" />
        </mxCell>
        <mxCell id="VvKC9R2UhtkqxEphzzf7-721" value="cancelled" style="text;strokeColor=none;fillColor=none;align=left;verticalAlign=top;spacingLeft=4;spacingRight=4;overflow=hidden;rotatable=0;points=[[0,0.5],[1,0.5]];portConstraint=eastwest;whiteSpace=wrap;html=1;labelBackgroundColor=none;" vertex="1" parent="VvKC9R2UhtkqxEphzzf7-718">
          <mxGeometry y="110" width="160" height="30" as="geometry" />
        </mxCell>
        <mxCell id="VvKC9R2UhtkqxEphzzf7-722" value="&lt;div&gt;&amp;lt;&amp;lt;enumeration&amp;gt;&amp;gt;&lt;/div&gt;&lt;div&gt;BookingStatus&lt;/div&gt;" style="swimlane;fontStyle=1;align=center;verticalAlign=top;childLayout=stackLayout;horizontal=1;startSize=50;horizontalStack=0;resizeParent=1;resizeParentMax=0;resizeLast=0;collapsible=1;marginBottom=0;whiteSpace=wrap;html=1;labelBackgroundColor=none;" vertex="1" parent="1">
          <mxGeometry x="452" y="3535" width="160" height="140" as="geometry" />
        </mxCell>
        <mxCell id="VvKC9R2UhtkqxEphzzf7-723" value="confirmed" style="text;strokeColor=none;fillColor=none;align=left;verticalAlign=top;spacingLeft=4;spacingRight=4;overflow=hidden;rotatable=0;points=[[0,0.5],[1,0.5]];portConstraint=eastwest;whiteSpace=wrap;html=1;labelBackgroundColor=none;" vertex="1" parent="VvKC9R2UhtkqxEphzzf7-722">
          <mxGeometry y="50" width="160" height="30" as="geometry" />
        </mxCell>
        <mxCell id="VvKC9R2UhtkqxEphzzf7-724" value="pending" style="text;strokeColor=none;fillColor=none;align=left;verticalAlign=top;spacingLeft=4;spacingRight=4;overflow=hidden;rotatable=0;points=[[0,0.5],[1,0.5]];portConstraint=eastwest;whiteSpace=wrap;html=1;labelBackgroundColor=none;" vertex="1" parent="VvKC9R2UhtkqxEphzzf7-722">
          <mxGeometry y="80" width="160" height="30" as="geometry" />
        </mxCell>
        <mxCell id="VvKC9R2UhtkqxEphzzf7-725" value="cancelled" style="text;strokeColor=none;fillColor=none;align=left;verticalAlign=top;spacingLeft=4;spacingRight=4;overflow=hidden;rotatable=0;points=[[0,0.5],[1,0.5]];portConstraint=eastwest;whiteSpace=wrap;html=1;labelBackgroundColor=none;" vertex="1" parent="VvKC9R2UhtkqxEphzzf7-722">
          <mxGeometry y="110" width="160" height="30" as="geometry" />
        </mxCell>
        <mxCell id="VvKC9R2UhtkqxEphzzf7-726" value="0...1" style="text;strokeColor=none;align=center;fillColor=none;html=1;verticalAlign=middle;whiteSpace=wrap;rounded=0;fontSize=12;labelBackgroundColor=none;" vertex="1" parent="1">
          <mxGeometry x="1096" y="575" width="30" height="30" as="geometry" />
        </mxCell>
        <mxCell id="VvKC9R2UhtkqxEphzzf7-727" value="0...*" style="text;strokeColor=none;align=center;fillColor=none;html=1;verticalAlign=middle;whiteSpace=wrap;rounded=0;fontSize=12;labelBackgroundColor=none;" vertex="1" parent="1">
          <mxGeometry x="962" y="575" width="30" height="30" as="geometry" />
        </mxCell>
        <mxCell id="VvKC9R2UhtkqxEphzzf7-728" value="1...1" style="text;strokeColor=none;align=center;fillColor=none;html=1;verticalAlign=middle;whiteSpace=wrap;rounded=0;fontSize=11;labelBackgroundColor=none;" vertex="1" parent="1">
          <mxGeometry x="772" y="575" width="30" height="30" as="geometry" />
        </mxCell>
        <mxCell id="VvKC9R2UhtkqxEphzzf7-729" value="&amp;lt;&amp;lt;identifier&amp;gt;&amp;gt;" style="text;strokeColor=none;align=center;fillColor=none;html=1;verticalAlign=middle;whiteSpace=wrap;rounded=0;fontSize=11;fontStyle=1" vertex="1" parent="1">
          <mxGeometry x="392" y="563" width="60" height="30" as="geometry" />
        </mxCell>
        <mxCell id="VvKC9R2UhtkqxEphzzf7-730" value="Ticket" style="swimlane;fontStyle=0;childLayout=stackLayout;horizontal=1;startSize=26;fillColor=none;horizontalStack=0;resizeParent=1;resizeParentMax=0;resizeLast=0;collapsible=1;marginBottom=0;whiteSpace=wrap;html=1;" vertex="1" parent="1">
          <mxGeometry x="727" y="257" width="140" height="104" as="geometry" />
        </mxCell>
        <mxCell id="VvKC9R2UhtkqxEphzzf7-731" value="ticket_number{id}" style="text;strokeColor=none;fillColor=none;align=left;verticalAlign=top;spacingLeft=4;spacingRight=4;overflow=hidden;rotatable=0;points=[[0,0.5],[1,0.5]];portConstraint=eastwest;whiteSpace=wrap;html=1;" vertex="1" parent="VvKC9R2UhtkqxEphzzf7-730">
          <mxGeometry y="26" width="140" height="26" as="geometry" />
        </mxCell>
        <mxCell id="VvKC9R2UhtkqxEphzzf7-732" value="seat[0...1]" style="text;strokeColor=none;fillColor=none;align=left;verticalAlign=top;spacingLeft=4;spacingRight=4;overflow=hidden;rotatable=0;points=[[0,0.5],[1,0.5]];portConstraint=eastwest;whiteSpace=wrap;html=1;" vertex="1" parent="VvKC9R2UhtkqxEphzzf7-730">
          <mxGeometry y="52" width="140" height="26" as="geometry" />
        </mxCell>
        <mxCell id="VvKC9R2UhtkqxEphzzf7-733" value="checked_in[0...*]" style="text;strokeColor=none;fillColor=none;align=left;verticalAlign=top;spacingLeft=4;spacingRight=4;overflow=hidden;rotatable=0;points=[[0,0.5],[1,0.5]];portConstraint=eastwest;whiteSpace=wrap;html=1;" vertex="1" parent="VvKC9R2UhtkqxEphzzf7-730">
          <mxGeometry y="78" width="140" height="26" as="geometry" />
        </mxCell>
        <mxCell id="VvKC9R2UhtkqxEphzzf7-734" value="" style="endArrow=none;html=1;rounded=0;fontSize=12;startSize=8;endSize=8;curved=1;" edge="1" parent="1" source="VvKC9R2UhtkqxEphzzf7-581" target="VvKC9R2UhtkqxEphzzf7-730">
          <mxGeometry width="50" height="50" relative="1" as="geometry">
            <mxPoint x="922" y="407" as="sourcePoint" />
            <mxPoint x="972" y="357" as="targetPoint" />
          </mxGeometry>
        </mxCell>
        <mxCell id="VvKC9R2UhtkqxEphzzf7-735" value="1...1" style="text;strokeColor=none;align=center;fillColor=none;html=1;verticalAlign=middle;whiteSpace=wrap;rounded=0;fontSize=11;" vertex="1" parent="1">
          <mxGeometry x="827" y="443" width="60" height="30" as="geometry" />
        </mxCell>
        <mxCell id="VvKC9R2UhtkqxEphzzf7-736" value="" style="endArrow=none;html=1;rounded=0;fontSize=12;startSize=8;endSize=8;curved=1;" edge="1" parent="1" source="VvKC9R2UhtkqxEphzzf7-564" target="VvKC9R2UhtkqxEphzzf7-567">
          <mxGeometry width="50" height="50" relative="1" as="geometry">
            <mxPoint x="532" y="577" as="sourcePoint" />
            <mxPoint x="582" y="527" as="targetPoint" />
          </mxGeometry>
        </mxCell>
        <mxCell id="VvKC9R2UhtkqxEphzzf7-737" value="1...1" style="text;strokeColor=none;align=center;fillColor=none;html=1;verticalAlign=middle;whiteSpace=wrap;rounded=0;fontSize=11;" vertex="1" parent="1">
          <mxGeometry x="572" y="525" width="60" height="30" as="geometry" />
        </mxCell>
        <mxCell id="VvKC9R2UhtkqxEphzzf7-738" value="" style="endArrow=none;html=1;rounded=0;fontSize=12;startSize=8;endSize=8;curved=1;" edge="1" parent="1" source="VvKC9R2UhtkqxEphzzf7-574" target="VvKC9R2UhtkqxEphzzf7-730">
          <mxGeometry width="50" height="50" relative="1" as="geometry">
            <mxPoint x="652" y="417" as="sourcePoint" />
            <mxPoint x="702" y="367" as="targetPoint" />
          </mxGeometry>
        </mxCell>
        <mxCell id="VvKC9R2UhtkqxEphzzf7-739" value="1...1" style="text;strokeColor=none;align=center;fillColor=none;html=1;verticalAlign=middle;whiteSpace=wrap;rounded=0;fontSize=11;" vertex="1" parent="1">
          <mxGeometry x="512" y="285" width="40" height="30" as="geometry" />
        </mxCell>
        <mxCell id="VvKC9R2UhtkqxEphzzf7-740" value="0...*" style="text;strokeColor=none;align=center;fillColor=none;html=1;verticalAlign=middle;whiteSpace=wrap;rounded=0;fontSize=12;" vertex="1" parent="1">
          <mxGeometry x="692" y="285" width="35" height="30" as="geometry" />
        </mxCell>
        <mxCell id="VvKC9R2UhtkqxEphzzf7-741" value="Has" style="text;html=1;align=center;verticalAlign=middle;resizable=0;points=[];autosize=1;strokeColor=none;fillColor=none;" vertex="1" parent="1">
          <mxGeometry x="592" y="285" width="40" height="30" as="geometry" />
        </mxCell>
        <mxCell id="VvKC9R2UhtkqxEphzzf7-742" value="Passenger" style="swimlane;fontStyle=0;childLayout=stackLayout;horizontal=1;startSize=26;fillColor=none;horizontalStack=0;resizeParent=1;resizeParentMax=0;resizeLast=0;collapsible=1;marginBottom=0;whiteSpace=wrap;html=1;labelBackgroundColor=none;" vertex="1" parent="1">
          <mxGeometry x="441" y="1762" width="140" height="146" as="geometry" />
        </mxCell>
        <mxCell id="VvKC9R2UhtkqxEphzzf7-743" value="first_name[0...1]" style="text;strokeColor=none;fillColor=none;align=left;verticalAlign=top;spacingLeft=4;spacingRight=4;overflow=hidden;rotatable=0;points=[[0,0.5],[1,0.5]];portConstraint=eastwest;whiteSpace=wrap;html=1;labelBackgroundColor=none;" vertex="1" parent="VvKC9R2UhtkqxEphzzf7-742">
          <mxGeometry y="26" width="140" height="30" as="geometry" />
        </mxCell>
        <mxCell id="VvKC9R2UhtkqxEphzzf7-744" value="last_name[0...1]" style="text;strokeColor=none;fillColor=none;align=left;verticalAlign=top;spacingLeft=4;spacingRight=4;overflow=hidden;rotatable=0;points=[[0,0.5],[1,0.5]];portConstraint=eastwest;whiteSpace=wrap;html=1;labelBackgroundColor=none;" vertex="1" parent="VvKC9R2UhtkqxEphzzf7-742">
          <mxGeometry y="56" width="140" height="30" as="geometry" />
        </mxCell>
        <mxCell id="VvKC9R2UhtkqxEphzzf7-745" value="birth_date[0...1]" style="text;strokeColor=none;fillColor=none;align=left;verticalAlign=top;spacingLeft=4;spacingRight=4;overflow=hidden;rotatable=0;points=[[0,0.5],[1,0.5]];portConstraint=eastwest;whiteSpace=wrap;html=1;labelBackgroundColor=none;" vertex="1" parent="VvKC9R2UhtkqxEphzzf7-742">
          <mxGeometry y="86" width="140" height="30" as="geometry" />
        </mxCell>
        <mxCell id="VvKC9R2UhtkqxEphzzf7-746" value="SSN: {id}" style="text;strokeColor=none;fillColor=none;align=left;verticalAlign=top;spacingLeft=4;spacingRight=4;overflow=hidden;rotatable=0;points=[[0,0.5],[1,0.5]];portConstraint=eastwest;whiteSpace=wrap;html=1;labelBackgroundColor=none;" vertex="1" parent="VvKC9R2UhtkqxEphzzf7-742">
          <mxGeometry y="116" width="140" height="30" as="geometry" />
        </mxCell>
        <mxCell id="VvKC9R2UhtkqxEphzzf7-747" value="0...*" style="text;html=1;align=center;verticalAlign=middle;resizable=0;points=[];autosize=1;strokeColor=none;fillColor=none;labelBackgroundColor=none;" vertex="1" parent="1">
          <mxGeometry x="766" y="1891" width="40" height="30" as="geometry" />
        </mxCell>
        <mxCell id="VvKC9R2UhtkqxEphzzf7-748" value="0...*" style="text;html=1;align=center;verticalAlign=middle;resizable=0;points=[];autosize=1;strokeColor=none;fillColor=none;labelBackgroundColor=none;" vertex="1" parent="1">
          <mxGeometry x="881" y="1881" width="40" height="30" as="geometry" />
        </mxCell>
        <mxCell id="VvKC9R2UhtkqxEphzzf7-749" value="" style="edgeStyle=none;curved=1;rounded=0;orthogonalLoop=1;jettySize=auto;html=1;fontSize=12;startSize=8;endSize=8;entryX=1;entryY=0.5;entryDx=0;entryDy=0;exitX=0;exitY=0.5;exitDx=0;exitDy=0;endArrow=none;startFill=0;labelBackgroundColor=none;" edge="1" parent="1" source="VvKC9R2UhtkqxEphzzf7-767" target="VvKC9R2UhtkqxEphzzf7-761">
          <mxGeometry relative="1" as="geometry">
            <mxPoint x="1471.4060332541567" y="1874.5" as="sourcePoint" />
            <mxPoint x="1491.002232779097" y="2012" as="targetPoint" />
          </mxGeometry>
        </mxCell>
        <mxCell id="VvKC9R2UhtkqxEphzzf7-750" value="" style="endArrow=none;html=1;rounded=0;labelBackgroundColor=none;entryX=0.468;entryY=1.044;entryDx=0;entryDy=0;entryPerimeter=0;" edge="1" parent="1" source="VvKC9R2UhtkqxEphzzf7-769" target="VvKC9R2UhtkqxEphzzf7-768">
          <mxGeometry relative="1" as="geometry">
            <mxPoint x="1271" y="1874.5" as="sourcePoint" />
            <mxPoint x="1371" y="1837.5" as="targetPoint" />
          </mxGeometry>
        </mxCell>
        <mxCell id="VvKC9R2UhtkqxEphzzf7-751" value="1...1" style="edgeLabel;resizable=0;html=1;align=left;verticalAlign=bottom;labelBackgroundColor=none;" connectable="0" vertex="1" parent="VvKC9R2UhtkqxEphzzf7-750">
          <mxGeometry relative="1" as="geometry">
            <mxPoint x="-31" y="47" as="offset" />
          </mxGeometry>
        </mxCell>
        <mxCell id="VvKC9R2UhtkqxEphzzf7-752" value="0...*" style="edgeLabel;resizable=0;html=1;align=right;verticalAlign=bottom;labelBackgroundColor=none;" connectable="0" vertex="1" parent="VvKC9R2UhtkqxEphzzf7-750">
          <mxGeometry relative="1" as="geometry">
            <mxPoint x="29" y="-34" as="offset" />
          </mxGeometry>
        </mxCell>
        <mxCell id="VvKC9R2UhtkqxEphzzf7-753" value="is for" style="text;html=1;align=center;verticalAlign=middle;resizable=0;points=[];autosize=1;strokeColor=none;fillColor=none;labelBackgroundColor=none;" vertex="1" parent="1">
          <mxGeometry x="891" y="1921" width="50" height="30" as="geometry" />
        </mxCell>
        <mxCell id="VvKC9R2UhtkqxEphzzf7-754" value="Includes" style="text;html=1;align=center;verticalAlign=middle;resizable=0;points=[];autosize=1;strokeColor=none;fillColor=none;labelBackgroundColor=none;" vertex="1" parent="1">
          <mxGeometry x="866" y="1707" width="70" height="30" as="geometry" />
        </mxCell>
        <mxCell id="VvKC9R2UhtkqxEphzzf7-755" value="&amp;lt;&amp;lt;enumeration&amp;gt;&amp;gt;&lt;br&gt;LuggageStatus" style="swimlane;fontStyle=0;childLayout=stackLayout;horizontal=1;startSize=39;fillColor=none;horizontalStack=0;resizeParent=1;resizeParentMax=0;resizeLast=0;collapsible=1;marginBottom=0;whiteSpace=wrap;html=1;labelBackgroundColor=none;" vertex="1" parent="1">
          <mxGeometry x="1071" y="1535" width="140" height="159" as="geometry" />
        </mxCell>
        <mxCell id="VvKC9R2UhtkqxEphzzf7-756" value="booked" style="text;strokeColor=none;fillColor=none;align=left;verticalAlign=top;spacingLeft=4;spacingRight=4;overflow=hidden;rotatable=0;points=[[0,0.5],[1,0.5]];portConstraint=eastwest;whiteSpace=wrap;html=1;labelBackgroundColor=none;" vertex="1" parent="VvKC9R2UhtkqxEphzzf7-755">
          <mxGeometry y="39" width="140" height="30" as="geometry" />
        </mxCell>
        <mxCell id="VvKC9R2UhtkqxEphzzf7-757" value="loaded" style="text;strokeColor=none;fillColor=none;align=left;verticalAlign=top;spacingLeft=4;spacingRight=4;overflow=hidden;rotatable=0;points=[[0,0.5],[1,0.5]];portConstraint=eastwest;whiteSpace=wrap;html=1;labelBackgroundColor=none;" vertex="1" parent="VvKC9R2UhtkqxEphzzf7-755">
          <mxGeometry y="69" width="140" height="30" as="geometry" />
        </mxCell>
        <mxCell id="VvKC9R2UhtkqxEphzzf7-758" value="withdrawable" style="text;strokeColor=none;fillColor=none;align=left;verticalAlign=top;spacingLeft=4;spacingRight=4;overflow=hidden;rotatable=0;points=[[0,0.5],[1,0.5]];portConstraint=eastwest;whiteSpace=wrap;html=1;labelBackgroundColor=none;" vertex="1" parent="VvKC9R2UhtkqxEphzzf7-755">
          <mxGeometry y="99" width="140" height="30" as="geometry" />
        </mxCell>
        <mxCell id="VvKC9R2UhtkqxEphzzf7-759" value="lost" style="text;strokeColor=none;fillColor=none;align=left;verticalAlign=top;spacingLeft=4;spacingRight=4;overflow=hidden;rotatable=0;points=[[0,0.5],[1,0.5]];portConstraint=eastwest;whiteSpace=wrap;html=1;labelBackgroundColor=none;" vertex="1" parent="VvKC9R2UhtkqxEphzzf7-755">
          <mxGeometry y="129" width="140" height="30" as="geometry" />
        </mxCell>
        <mxCell id="VvKC9R2UhtkqxEphzzf7-760" value="&lt;div&gt;&amp;lt;&amp;lt;enumeration&amp;gt;&amp;gt;&lt;/div&gt;&lt;div&gt;LuggageType&lt;/div&gt;" style="swimlane;fontStyle=0;childLayout=stackLayout;horizontal=1;startSize=37;fillColor=none;horizontalStack=0;resizeParent=1;resizeParentMax=0;resizeLast=0;collapsible=1;marginBottom=0;whiteSpace=wrap;html=1;labelBackgroundColor=none;" vertex="1" parent="1">
          <mxGeometry x="571" y="1566" width="140" height="97" as="geometry" />
        </mxCell>
        <mxCell id="VvKC9R2UhtkqxEphzzf7-761" value="carry_on" style="text;strokeColor=none;fillColor=none;align=left;verticalAlign=top;spacingLeft=4;spacingRight=4;overflow=hidden;rotatable=0;points=[[0,0.5],[1,0.5]];portConstraint=eastwest;whiteSpace=wrap;html=1;labelBackgroundColor=none;" vertex="1" parent="VvKC9R2UhtkqxEphzzf7-760">
          <mxGeometry y="37" width="140" height="30" as="geometry" />
        </mxCell>
        <mxCell id="VvKC9R2UhtkqxEphzzf7-762" value="checked" style="text;strokeColor=none;fillColor=none;align=left;verticalAlign=top;spacingLeft=4;spacingRight=4;overflow=hidden;rotatable=0;points=[[0,0.5],[1,0.5]];portConstraint=eastwest;whiteSpace=wrap;html=1;labelBackgroundColor=none;" vertex="1" parent="VvKC9R2UhtkqxEphzzf7-760">
          <mxGeometry y="67" width="140" height="30" as="geometry" />
        </mxCell>
        <mxCell id="VvKC9R2UhtkqxEphzzf7-763" value="" style="endArrow=none;html=1;rounded=0;entryX=0;entryY=0.333;entryDx=0;entryDy=0;exitX=1.003;exitY=0.323;exitDx=0;exitDy=0;exitPerimeter=0;entryPerimeter=0;labelBackgroundColor=none;" edge="1" parent="1" source="VvKC9R2UhtkqxEphzzf7-767" target="VvKC9R2UhtkqxEphzzf7-757">
          <mxGeometry relative="1" as="geometry">
            <mxPoint x="1391" y="1848.5" as="sourcePoint" />
            <mxPoint x="1551" y="1848.5" as="targetPoint" />
          </mxGeometry>
        </mxCell>
        <mxCell id="VvKC9R2UhtkqxEphzzf7-764" value="" style="group;labelBackgroundColor=none;" vertex="1" connectable="0" parent="1">
          <mxGeometry x="771" y="1547" width="190" height="116" as="geometry" />
        </mxCell>
        <mxCell id="VvKC9R2UhtkqxEphzzf7-765" value="Luggage" style="swimlane;fontStyle=0;childLayout=stackLayout;horizontal=1;startSize=26;fillColor=none;horizontalStack=0;resizeParent=1;resizeParentMax=0;resizeLast=0;collapsible=1;marginBottom=0;whiteSpace=wrap;html=1;points=[[0,0,0,0,0],[0,0.25,0,0,0],[0,0.5,0,0,0],[0,0.75,0,0,0],[0,1,0,0,0],[0.25,0,0,0,0],[0.25,1,0,0,0],[0.5,0,0,0,0],[0.5,1,0,0,0],[0.75,0,0,0,0],[0.75,1,0,0,0],[1,0,0,0,0],[1,0.25,0,0,0],[1,0.5,0,0,0],[1,0.75,0,0,0],[1,1,0,0,0]];container=0;labelBackgroundColor=none;" vertex="1" parent="VvKC9R2UhtkqxEphzzf7-764">
          <mxGeometry width="190" height="116" as="geometry" />
        </mxCell>
        <mxCell id="VvKC9R2UhtkqxEphzzf7-766" value="id_luggage_after_check_in[0...1]" style="text;strokeColor=none;fillColor=none;align=left;verticalAlign=top;spacingLeft=4;spacingRight=4;overflow=hidden;rotatable=0;points=[[0,0.5],[1,0.5]];portConstraint=eastwest;whiteSpace=wrap;html=1;labelBackgroundColor=none;" vertex="1" parent="VvKC9R2UhtkqxEphzzf7-764">
          <mxGeometry y="26" width="190" height="30" as="geometry" />
        </mxCell>
        <mxCell id="VvKC9R2UhtkqxEphzzf7-767" value="type: LuggageType[0...1]" style="text;strokeColor=none;fillColor=none;align=left;verticalAlign=top;spacingLeft=4;spacingRight=4;overflow=hidden;rotatable=0;points=[[0,0.5],[1,0.5]];portConstraint=eastwest;whiteSpace=wrap;html=1;labelBackgroundColor=none;" vertex="1" parent="VvKC9R2UhtkqxEphzzf7-764">
          <mxGeometry y="56" width="190" height="30" as="geometry" />
        </mxCell>
        <mxCell id="VvKC9R2UhtkqxEphzzf7-768" value="luggage_status: LuggageStatus" style="text;strokeColor=none;fillColor=none;align=left;verticalAlign=top;spacingLeft=4;spacingRight=4;overflow=hidden;rotatable=0;points=[[0,0.5],[1,0.5]];portConstraint=eastwest;whiteSpace=wrap;html=1;labelBackgroundColor=none;" vertex="1" parent="VvKC9R2UhtkqxEphzzf7-764">
          <mxGeometry y="86" width="190" height="30" as="geometry" />
        </mxCell>
        <mxCell id="VvKC9R2UhtkqxEphzzf7-769" value="Ticket" style="swimlane;fontStyle=0;childLayout=stackLayout;horizontal=1;startSize=26;fillColor=none;horizontalStack=0;resizeParent=1;resizeParentMax=0;resizeLast=0;collapsible=1;marginBottom=0;whiteSpace=wrap;html=1;" vertex="1" parent="1">
          <mxGeometry x="796" y="1777" width="140" height="104" as="geometry" />
        </mxCell>
        <mxCell id="VvKC9R2UhtkqxEphzzf7-770" value="ticket_number{id}" style="text;strokeColor=none;fillColor=none;align=left;verticalAlign=top;spacingLeft=4;spacingRight=4;overflow=hidden;rotatable=0;points=[[0,0.5],[1,0.5]];portConstraint=eastwest;whiteSpace=wrap;html=1;" vertex="1" parent="VvKC9R2UhtkqxEphzzf7-769">
          <mxGeometry y="26" width="140" height="26" as="geometry" />
        </mxCell>
        <mxCell id="VvKC9R2UhtkqxEphzzf7-771" value="seat[0...1]" style="text;strokeColor=none;fillColor=none;align=left;verticalAlign=top;spacingLeft=4;spacingRight=4;overflow=hidden;rotatable=0;points=[[0,0.5],[1,0.5]];portConstraint=eastwest;whiteSpace=wrap;html=1;" vertex="1" parent="VvKC9R2UhtkqxEphzzf7-769">
          <mxGeometry y="52" width="140" height="26" as="geometry" />
        </mxCell>
        <mxCell id="VvKC9R2UhtkqxEphzzf7-772" value="checked_in[0...*]" style="text;strokeColor=none;fillColor=none;align=left;verticalAlign=top;spacingLeft=4;spacingRight=4;overflow=hidden;rotatable=0;points=[[0,0.5],[1,0.5]];portConstraint=eastwest;whiteSpace=wrap;html=1;" vertex="1" parent="VvKC9R2UhtkqxEphzzf7-769">
          <mxGeometry y="78" width="140" height="26" as="geometry" />
        </mxCell>
        <mxCell id="VvKC9R2UhtkqxEphzzf7-773" value="" style="endArrow=none;html=1;rounded=0;fontSize=12;startSize=8;endSize=8;curved=1;" edge="1" parent="1" source="VvKC9R2UhtkqxEphzzf7-640" target="VvKC9R2UhtkqxEphzzf7-769">
          <mxGeometry width="50" height="50" relative="1" as="geometry">
            <mxPoint x="912" y="1987" as="sourcePoint" />
            <mxPoint x="1041" y="1877" as="targetPoint" />
          </mxGeometry>
        </mxCell>
        <mxCell id="VvKC9R2UhtkqxEphzzf7-774" value="1...1" style="text;strokeColor=none;align=center;fillColor=none;html=1;verticalAlign=middle;whiteSpace=wrap;rounded=0;fontSize=11;" vertex="1" parent="1">
          <mxGeometry x="896" y="1963" width="60" height="30" as="geometry" />
        </mxCell>
        <mxCell id="VvKC9R2UhtkqxEphzzf7-775" value="" style="endArrow=none;html=1;rounded=0;fontSize=12;startSize=8;endSize=8;curved=1;" edge="1" parent="1" source="VvKC9R2UhtkqxEphzzf7-742" target="VvKC9R2UhtkqxEphzzf7-769">
          <mxGeometry width="50" height="50" relative="1" as="geometry">
            <mxPoint x="721" y="1937" as="sourcePoint" />
            <mxPoint x="771" y="1887" as="targetPoint" />
          </mxGeometry>
        </mxCell>
        <mxCell id="VvKC9R2UhtkqxEphzzf7-776" value="1...1" style="text;strokeColor=none;align=center;fillColor=none;html=1;verticalAlign=middle;whiteSpace=wrap;rounded=0;fontSize=11;" vertex="1" parent="1">
          <mxGeometry x="581" y="1805" width="40" height="30" as="geometry" />
        </mxCell>
        <mxCell id="VvKC9R2UhtkqxEphzzf7-777" value="0...*" style="text;strokeColor=none;align=center;fillColor=none;html=1;verticalAlign=middle;whiteSpace=wrap;rounded=0;fontSize=12;" vertex="1" parent="1">
          <mxGeometry x="761" y="1805" width="35" height="30" as="geometry" />
        </mxCell>
        <mxCell id="VvKC9R2UhtkqxEphzzf7-778" value="Has" style="text;html=1;align=center;verticalAlign=middle;resizable=0;points=[];autosize=1;strokeColor=none;fillColor=none;" vertex="1" parent="1">
          <mxGeometry x="661" y="1805" width="40" height="30" as="geometry" />
        </mxCell>
        <mxCell id="VvKC9R2UhtkqxEphzzf7-779" value="Includes" style="text;html=1;align=center;verticalAlign=middle;resizable=0;points=[];autosize=1;strokeColor=none;fillColor=none;" vertex="1" parent="1">
          <mxGeometry x="612" y="443" width="70" height="30" as="geometry" />
        </mxCell>
        <mxCell id="VvKC9R2UhtkqxEphzzf7-780" value="&lt;div&gt;&lt;br&gt;&lt;/div&gt;&lt;div&gt;&lt;br&gt;&lt;/div&gt;" style="endArrow=none;html=1;startArrow=none;startFill=0;align=left;verticalAlign=bottom;rounded=0;labelBackgroundColor=none;endFill=0;" edge="1" parent="1" source="VvKC9R2UhtkqxEphzzf7-634" target="VvKC9R2UhtkqxEphzzf7-769">
          <mxGeometry x="-0.8676" y="29" relative="1" as="geometry">
            <mxPoint x="661" y="1955" as="sourcePoint" />
            <mxPoint x="806" y="1761" as="targetPoint" />
            <mxPoint as="offset" />
          </mxGeometry>
        </mxCell>
        <mxCell id="VvKC9R2UhtkqxEphzzf7-781" value="1...1" style="text;html=1;align=center;verticalAlign=middle;resizable=0;points=[];autosize=1;strokeColor=none;fillColor=none;" vertex="1" parent="1">
          <mxGeometry x="541" y="2035" width="50" height="30" as="geometry" />
        </mxCell>
        <mxCell id="VvKC9R2UhtkqxEphzzf7-782" value="Includes" style="text;html=1;align=center;verticalAlign=middle;resizable=0;points=[];autosize=1;strokeColor=none;fillColor=none;" vertex="1" parent="1">
          <mxGeometry x="601" y="1963" width="70" height="30" as="geometry" />
        </mxCell>
        <mxCell id="VvKC9R2UhtkqxEphzzf7-783" value="&amp;lt;&amp;lt;identifier&amp;gt;&amp;gt;" style="text;strokeColor=none;align=center;fillColor=none;html=1;verticalAlign=middle;whiteSpace=wrap;rounded=0;fontSize=11;fontStyle=1" vertex="1" parent="1">
          <mxGeometry x="292" y="2121" width="60" height="30" as="geometry" />
        </mxCell>
        <mxCell id="VvKC9R2UhtkqxEphzzf7-784" value="&lt;div&gt;&amp;lt;&amp;lt;enumeration&amp;gt;&amp;gt;&lt;/div&gt;&lt;div&gt;FlightStatus&lt;/div&gt;" style="swimlane;fontStyle=0;childLayout=stackLayout;horizontal=1;startSize=40;fillColor=none;horizontalStack=0;resizeParent=1;resizeParentMax=0;resizeLast=0;collapsible=1;marginBottom=0;whiteSpace=wrap;html=1;labelBackgroundColor=none;" vertex="1" parent="1">
          <mxGeometry x="1136" y="3341" width="180" height="250" as="geometry" />
        </mxCell>
        <mxCell id="VvKC9R2UhtkqxEphzzf7-785" value="programmed" style="text;strokeColor=none;fillColor=none;align=left;verticalAlign=top;spacingLeft=4;spacingRight=4;overflow=hidden;rotatable=0;points=[[0,0.5],[1,0.5]];portConstraint=eastwest;whiteSpace=wrap;html=1;labelBackgroundColor=none;" vertex="1" parent="VvKC9R2UhtkqxEphzzf7-784">
          <mxGeometry y="40" width="180" height="30" as="geometry" />
        </mxCell>
        <mxCell id="VvKC9R2UhtkqxEphzzf7-786" value="cancelled" style="text;strokeColor=none;fillColor=none;align=left;verticalAlign=top;spacingLeft=4;spacingRight=4;overflow=hidden;rotatable=0;points=[[0,0.5],[1,0.5]];portConstraint=eastwest;whiteSpace=wrap;html=1;labelBackgroundColor=none;" vertex="1" parent="VvKC9R2UhtkqxEphzzf7-784">
          <mxGeometry y="70" width="180" height="30" as="geometry" />
        </mxCell>
        <mxCell id="VvKC9R2UhtkqxEphzzf7-787" value="delayed" style="text;strokeColor=none;fillColor=none;align=left;verticalAlign=top;spacingLeft=4;spacingRight=4;overflow=hidden;rotatable=0;points=[[0,0.5],[1,0.5]];portConstraint=eastwest;whiteSpace=wrap;html=1;labelBackgroundColor=none;" vertex="1" parent="VvKC9R2UhtkqxEphzzf7-784">
          <mxGeometry y="100" width="180" height="30" as="geometry" />
        </mxCell>
        <mxCell id="VvKC9R2UhtkqxEphzzf7-788" value="aboutToDepart" style="text;strokeColor=none;fillColor=none;align=left;verticalAlign=top;spacingLeft=4;spacingRight=4;overflow=hidden;rotatable=0;points=[[0,0.5],[1,0.5]];portConstraint=eastwest;whiteSpace=wrap;html=1;labelBackgroundColor=none;" vertex="1" parent="VvKC9R2UhtkqxEphzzf7-784">
          <mxGeometry y="130" width="180" height="30" as="geometry" />
        </mxCell>
        <mxCell id="VvKC9R2UhtkqxEphzzf7-789" value="departed" style="text;strokeColor=none;fillColor=none;align=left;verticalAlign=top;spacingLeft=4;spacingRight=4;overflow=hidden;rotatable=0;points=[[0,0.5],[1,0.5]];portConstraint=eastwest;whiteSpace=wrap;html=1;labelBackgroundColor=none;" vertex="1" parent="VvKC9R2UhtkqxEphzzf7-784">
          <mxGeometry y="160" width="180" height="30" as="geometry" />
        </mxCell>
        <mxCell id="VvKC9R2UhtkqxEphzzf7-790" value="aboutToArrive" style="text;strokeColor=none;fillColor=none;align=left;verticalAlign=top;spacingLeft=4;spacingRight=4;overflow=hidden;rotatable=0;points=[[0,0.5],[1,0.5]];portConstraint=eastwest;whiteSpace=wrap;html=1;labelBackgroundColor=none;" vertex="1" parent="VvKC9R2UhtkqxEphzzf7-784">
          <mxGeometry y="190" width="180" height="30" as="geometry" />
        </mxCell>
        <mxCell id="VvKC9R2UhtkqxEphzzf7-791" value="landed" style="text;strokeColor=none;fillColor=none;align=left;verticalAlign=top;spacingLeft=4;spacingRight=4;overflow=hidden;rotatable=0;points=[[0,0.5],[1,0.5]];portConstraint=eastwest;whiteSpace=wrap;html=1;labelBackgroundColor=none;" vertex="1" parent="VvKC9R2UhtkqxEphzzf7-784">
          <mxGeometry y="220" width="180" height="30" as="geometry" />
        </mxCell>
        <mxCell id="VvKC9R2UhtkqxEphzzf7-792" value="Passenger" style="swimlane;fontStyle=0;childLayout=stackLayout;horizontal=1;startSize=26;fillColor=none;horizontalStack=0;resizeParent=1;resizeParentMax=0;resizeLast=0;collapsible=1;marginBottom=0;whiteSpace=wrap;html=1;labelBackgroundColor=none;" vertex="1" parent="1">
          <mxGeometry x="496" y="3071" width="140" height="146" as="geometry">
            <mxRectangle x="-235" y="2496" width="100" height="30" as="alternateBounds" />
          </mxGeometry>
        </mxCell>
        <mxCell id="VvKC9R2UhtkqxEphzzf7-793" value="first_name[0...1]" style="text;strokeColor=none;fillColor=none;align=left;verticalAlign=top;spacingLeft=4;spacingRight=4;overflow=hidden;rotatable=0;points=[[0,0.5],[1,0.5]];portConstraint=eastwest;whiteSpace=wrap;html=1;labelBackgroundColor=none;" vertex="1" parent="VvKC9R2UhtkqxEphzzf7-792">
          <mxGeometry y="26" width="140" height="30" as="geometry" />
        </mxCell>
        <mxCell id="VvKC9R2UhtkqxEphzzf7-794" value="last_name[0...1]" style="text;strokeColor=none;fillColor=none;align=left;verticalAlign=top;spacingLeft=4;spacingRight=4;overflow=hidden;rotatable=0;points=[[0,0.5],[1,0.5]];portConstraint=eastwest;whiteSpace=wrap;html=1;labelBackgroundColor=none;" vertex="1" parent="VvKC9R2UhtkqxEphzzf7-792">
          <mxGeometry y="56" width="140" height="30" as="geometry" />
        </mxCell>
        <mxCell id="VvKC9R2UhtkqxEphzzf7-795" value="birth_date[0...1]" style="text;strokeColor=none;fillColor=none;align=left;verticalAlign=top;spacingLeft=4;spacingRight=4;overflow=hidden;rotatable=0;points=[[0,0.5],[1,0.5]];portConstraint=eastwest;whiteSpace=wrap;html=1;labelBackgroundColor=none;" vertex="1" parent="VvKC9R2UhtkqxEphzzf7-792">
          <mxGeometry y="86" width="140" height="30" as="geometry" />
        </mxCell>
        <mxCell id="VvKC9R2UhtkqxEphzzf7-796" value="SSN: {id}" style="text;strokeColor=none;fillColor=none;align=left;verticalAlign=top;spacingLeft=4;spacingRight=4;overflow=hidden;rotatable=0;points=[[0,0.5],[1,0.5]];portConstraint=eastwest;whiteSpace=wrap;html=1;labelBackgroundColor=none;" vertex="1" parent="VvKC9R2UhtkqxEphzzf7-792">
          <mxGeometry y="116" width="140" height="30" as="geometry" />
        </mxCell>
        <mxCell id="VvKC9R2UhtkqxEphzzf7-797" value="0...*" style="text;html=1;align=center;verticalAlign=middle;resizable=0;points=[];autosize=1;strokeColor=none;fillColor=none;labelBackgroundColor=none;" vertex="1" parent="1">
          <mxGeometry x="797" y="3165" width="40" height="30" as="geometry" />
        </mxCell>
        <mxCell id="VvKC9R2UhtkqxEphzzf7-798" value="0...*" style="text;html=1;align=center;verticalAlign=middle;resizable=0;points=[];autosize=1;strokeColor=none;fillColor=none;labelBackgroundColor=none;" vertex="1" parent="1">
          <mxGeometry x="936" y="3181" width="40" height="30" as="geometry" />
        </mxCell>
        <mxCell id="VvKC9R2UhtkqxEphzzf7-799" value="" style="edgeStyle=none;curved=1;rounded=0;orthogonalLoop=1;jettySize=auto;html=1;fontSize=12;startSize=8;endSize=8;entryX=1;entryY=0.5;entryDx=0;entryDy=0;exitX=0;exitY=0.5;exitDx=0;exitDy=0;endArrow=none;startFill=0;labelBackgroundColor=none;" edge="1" parent="1" source="VvKC9R2UhtkqxEphzzf7-817" target="VvKC9R2UhtkqxEphzzf7-811">
          <mxGeometry relative="1" as="geometry">
            <mxPoint x="1526.4060332541567" y="3174.5" as="sourcePoint" />
            <mxPoint x="1546.002232779097" y="3312" as="targetPoint" />
          </mxGeometry>
        </mxCell>
        <mxCell id="VvKC9R2UhtkqxEphzzf7-800" value="" style="endArrow=none;html=1;rounded=0;labelBackgroundColor=none;entryX=0.468;entryY=1.044;entryDx=0;entryDy=0;entryPerimeter=0;" edge="1" parent="1" source="VvKC9R2UhtkqxEphzzf7-819" target="VvKC9R2UhtkqxEphzzf7-818">
          <mxGeometry relative="1" as="geometry">
            <mxPoint x="1326" y="3174.5" as="sourcePoint" />
            <mxPoint x="1426" y="3137.5" as="targetPoint" />
          </mxGeometry>
        </mxCell>
        <mxCell id="VvKC9R2UhtkqxEphzzf7-801" value="1...1" style="edgeLabel;resizable=0;html=1;align=left;verticalAlign=bottom;labelBackgroundColor=none;" connectable="0" vertex="1" parent="VvKC9R2UhtkqxEphzzf7-800">
          <mxGeometry relative="1" as="geometry">
            <mxPoint x="-31" y="47" as="offset" />
          </mxGeometry>
        </mxCell>
        <mxCell id="VvKC9R2UhtkqxEphzzf7-802" value="0...*" style="edgeLabel;resizable=0;html=1;align=right;verticalAlign=bottom;labelBackgroundColor=none;" connectable="0" vertex="1" parent="VvKC9R2UhtkqxEphzzf7-800">
          <mxGeometry relative="1" as="geometry">
            <mxPoint x="29" y="-34" as="offset" />
          </mxGeometry>
        </mxCell>
        <mxCell id="VvKC9R2UhtkqxEphzzf7-803" value="is for" style="text;html=1;align=center;verticalAlign=middle;resizable=0;points=[];autosize=1;strokeColor=none;fillColor=none;labelBackgroundColor=none;" vertex="1" parent="1">
          <mxGeometry x="926" y="3233" width="50" height="30" as="geometry" />
        </mxCell>
        <mxCell id="VvKC9R2UhtkqxEphzzf7-804" value="Includes" style="text;html=1;align=center;verticalAlign=middle;resizable=0;points=[];autosize=1;strokeColor=none;fillColor=none;labelBackgroundColor=none;" vertex="1" parent="1">
          <mxGeometry x="921" y="3007" width="70" height="30" as="geometry" />
        </mxCell>
        <mxCell id="VvKC9R2UhtkqxEphzzf7-805" value="&amp;lt;&amp;lt;enumeration&amp;gt;&amp;gt;&lt;br&gt;LuggageStatus" style="swimlane;fontStyle=0;childLayout=stackLayout;horizontal=1;startSize=39;fillColor=none;horizontalStack=0;resizeParent=1;resizeParentMax=0;resizeLast=0;collapsible=1;marginBottom=0;whiteSpace=wrap;html=1;labelBackgroundColor=none;" vertex="1" parent="1">
          <mxGeometry x="1126" y="2835" width="140" height="159" as="geometry" />
        </mxCell>
        <mxCell id="VvKC9R2UhtkqxEphzzf7-806" value="booked" style="text;strokeColor=none;fillColor=none;align=left;verticalAlign=top;spacingLeft=4;spacingRight=4;overflow=hidden;rotatable=0;points=[[0,0.5],[1,0.5]];portConstraint=eastwest;whiteSpace=wrap;html=1;labelBackgroundColor=none;" vertex="1" parent="VvKC9R2UhtkqxEphzzf7-805">
          <mxGeometry y="39" width="140" height="30" as="geometry" />
        </mxCell>
        <mxCell id="VvKC9R2UhtkqxEphzzf7-807" value="loaded" style="text;strokeColor=none;fillColor=none;align=left;verticalAlign=top;spacingLeft=4;spacingRight=4;overflow=hidden;rotatable=0;points=[[0,0.5],[1,0.5]];portConstraint=eastwest;whiteSpace=wrap;html=1;labelBackgroundColor=none;" vertex="1" parent="VvKC9R2UhtkqxEphzzf7-805">
          <mxGeometry y="69" width="140" height="30" as="geometry" />
        </mxCell>
        <mxCell id="VvKC9R2UhtkqxEphzzf7-808" value="withdrawable" style="text;strokeColor=none;fillColor=none;align=left;verticalAlign=top;spacingLeft=4;spacingRight=4;overflow=hidden;rotatable=0;points=[[0,0.5],[1,0.5]];portConstraint=eastwest;whiteSpace=wrap;html=1;labelBackgroundColor=none;" vertex="1" parent="VvKC9R2UhtkqxEphzzf7-805">
          <mxGeometry y="99" width="140" height="30" as="geometry" />
        </mxCell>
        <mxCell id="VvKC9R2UhtkqxEphzzf7-809" value="lost" style="text;strokeColor=none;fillColor=none;align=left;verticalAlign=top;spacingLeft=4;spacingRight=4;overflow=hidden;rotatable=0;points=[[0,0.5],[1,0.5]];portConstraint=eastwest;whiteSpace=wrap;html=1;labelBackgroundColor=none;" vertex="1" parent="VvKC9R2UhtkqxEphzzf7-805">
          <mxGeometry y="129" width="140" height="30" as="geometry" />
        </mxCell>
        <mxCell id="VvKC9R2UhtkqxEphzzf7-810" value="&lt;div&gt;&amp;lt;&amp;lt;enumeration&amp;gt;&amp;gt;&lt;/div&gt;&lt;div&gt;LuggageType&lt;/div&gt;" style="swimlane;fontStyle=0;childLayout=stackLayout;horizontal=1;startSize=37;fillColor=none;horizontalStack=0;resizeParent=1;resizeParentMax=0;resizeLast=0;collapsible=1;marginBottom=0;whiteSpace=wrap;html=1;labelBackgroundColor=none;" vertex="1" parent="1">
          <mxGeometry x="626" y="2866" width="140" height="97" as="geometry" />
        </mxCell>
        <mxCell id="VvKC9R2UhtkqxEphzzf7-811" value="carry_on" style="text;strokeColor=none;fillColor=none;align=left;verticalAlign=top;spacingLeft=4;spacingRight=4;overflow=hidden;rotatable=0;points=[[0,0.5],[1,0.5]];portConstraint=eastwest;whiteSpace=wrap;html=1;labelBackgroundColor=none;" vertex="1" parent="VvKC9R2UhtkqxEphzzf7-810">
          <mxGeometry y="37" width="140" height="30" as="geometry" />
        </mxCell>
        <mxCell id="VvKC9R2UhtkqxEphzzf7-812" value="checked" style="text;strokeColor=none;fillColor=none;align=left;verticalAlign=top;spacingLeft=4;spacingRight=4;overflow=hidden;rotatable=0;points=[[0,0.5],[1,0.5]];portConstraint=eastwest;whiteSpace=wrap;html=1;labelBackgroundColor=none;" vertex="1" parent="VvKC9R2UhtkqxEphzzf7-810">
          <mxGeometry y="67" width="140" height="30" as="geometry" />
        </mxCell>
        <mxCell id="VvKC9R2UhtkqxEphzzf7-813" value="" style="endArrow=none;html=1;rounded=0;entryX=0;entryY=0.333;entryDx=0;entryDy=0;exitX=1.003;exitY=0.323;exitDx=0;exitDy=0;exitPerimeter=0;entryPerimeter=0;labelBackgroundColor=none;" edge="1" parent="1" source="VvKC9R2UhtkqxEphzzf7-817" target="VvKC9R2UhtkqxEphzzf7-807">
          <mxGeometry relative="1" as="geometry">
            <mxPoint x="1446" y="3148.5" as="sourcePoint" />
            <mxPoint x="1606" y="3148.5" as="targetPoint" />
          </mxGeometry>
        </mxCell>
        <mxCell id="VvKC9R2UhtkqxEphzzf7-814" value="" style="group;labelBackgroundColor=none;" vertex="1" connectable="0" parent="1">
          <mxGeometry x="826" y="2847" width="190" height="116" as="geometry" />
        </mxCell>
        <mxCell id="VvKC9R2UhtkqxEphzzf7-815" value="Luggage" style="swimlane;fontStyle=0;childLayout=stackLayout;horizontal=1;startSize=26;fillColor=none;horizontalStack=0;resizeParent=1;resizeParentMax=0;resizeLast=0;collapsible=1;marginBottom=0;whiteSpace=wrap;html=1;points=[[0,0,0,0,0],[0,0.25,0,0,0],[0,0.5,0,0,0],[0,0.75,0,0,0],[0,1,0,0,0],[0.25,0,0,0,0],[0.25,1,0,0,0],[0.5,0,0,0,0],[0.5,1,0,0,0],[0.75,0,0,0,0],[0.75,1,0,0,0],[1,0,0,0,0],[1,0.25,0,0,0],[1,0.5,0,0,0],[1,0.75,0,0,0],[1,1,0,0,0]];container=0;labelBackgroundColor=none;" vertex="1" parent="VvKC9R2UhtkqxEphzzf7-814">
          <mxGeometry width="190" height="116" as="geometry" />
        </mxCell>
        <mxCell id="VvKC9R2UhtkqxEphzzf7-816" value="id_luggage_after_check_in[0...1]" style="text;strokeColor=none;fillColor=none;align=left;verticalAlign=top;spacingLeft=4;spacingRight=4;overflow=hidden;rotatable=0;points=[[0,0.5],[1,0.5]];portConstraint=eastwest;whiteSpace=wrap;html=1;labelBackgroundColor=none;" vertex="1" parent="VvKC9R2UhtkqxEphzzf7-814">
          <mxGeometry y="26" width="190" height="30" as="geometry" />
        </mxCell>
        <mxCell id="VvKC9R2UhtkqxEphzzf7-817" value="type: LuggageType[0...1]" style="text;strokeColor=none;fillColor=none;align=left;verticalAlign=top;spacingLeft=4;spacingRight=4;overflow=hidden;rotatable=0;points=[[0,0.5],[1,0.5]];portConstraint=eastwest;whiteSpace=wrap;html=1;labelBackgroundColor=none;" vertex="1" parent="VvKC9R2UhtkqxEphzzf7-814">
          <mxGeometry y="56" width="190" height="30" as="geometry" />
        </mxCell>
        <mxCell id="VvKC9R2UhtkqxEphzzf7-818" value="luggage_status: LuggageStatus" style="text;strokeColor=none;fillColor=none;align=left;verticalAlign=top;spacingLeft=4;spacingRight=4;overflow=hidden;rotatable=0;points=[[0,0.5],[1,0.5]];portConstraint=eastwest;whiteSpace=wrap;html=1;labelBackgroundColor=none;" vertex="1" parent="VvKC9R2UhtkqxEphzzf7-814">
          <mxGeometry y="86" width="190" height="30" as="geometry" />
        </mxCell>
        <mxCell id="VvKC9R2UhtkqxEphzzf7-819" value="Ticket" style="swimlane;fontStyle=0;childLayout=stackLayout;horizontal=1;startSize=26;fillColor=none;horizontalStack=0;resizeParent=1;resizeParentMax=0;resizeLast=0;collapsible=1;marginBottom=0;whiteSpace=wrap;html=1;" vertex="1" parent="1">
          <mxGeometry x="851" y="3077" width="140" height="104" as="geometry" />
        </mxCell>
        <mxCell id="VvKC9R2UhtkqxEphzzf7-820" value="ticket_number{id}" style="text;strokeColor=none;fillColor=none;align=left;verticalAlign=top;spacingLeft=4;spacingRight=4;overflow=hidden;rotatable=0;points=[[0,0.5],[1,0.5]];portConstraint=eastwest;whiteSpace=wrap;html=1;" vertex="1" parent="VvKC9R2UhtkqxEphzzf7-819">
          <mxGeometry y="26" width="140" height="26" as="geometry" />
        </mxCell>
        <mxCell id="VvKC9R2UhtkqxEphzzf7-821" value="seat[0...1]" style="text;strokeColor=none;fillColor=none;align=left;verticalAlign=top;spacingLeft=4;spacingRight=4;overflow=hidden;rotatable=0;points=[[0,0.5],[1,0.5]];portConstraint=eastwest;whiteSpace=wrap;html=1;" vertex="1" parent="VvKC9R2UhtkqxEphzzf7-819">
          <mxGeometry y="52" width="140" height="26" as="geometry" />
        </mxCell>
        <mxCell id="VvKC9R2UhtkqxEphzzf7-822" value="checked_in[0...*]" style="text;strokeColor=none;fillColor=none;align=left;verticalAlign=top;spacingLeft=4;spacingRight=4;overflow=hidden;rotatable=0;points=[[0,0.5],[1,0.5]];portConstraint=eastwest;whiteSpace=wrap;html=1;" vertex="1" parent="VvKC9R2UhtkqxEphzzf7-819">
          <mxGeometry y="78" width="140" height="26" as="geometry" />
        </mxCell>
        <mxCell id="VvKC9R2UhtkqxEphzzf7-823" value="" style="endArrow=none;html=1;rounded=0;fontSize=12;startSize=8;endSize=8;curved=1;" edge="1" parent="1" source="VvKC9R2UhtkqxEphzzf7-679" target="VvKC9R2UhtkqxEphzzf7-819">
          <mxGeometry width="50" height="50" relative="1" as="geometry">
            <mxPoint x="934" y="3315" as="sourcePoint" />
            <mxPoint x="1096" y="3177" as="targetPoint" />
          </mxGeometry>
        </mxCell>
        <mxCell id="VvKC9R2UhtkqxEphzzf7-824" value="1...1" style="text;strokeColor=none;align=center;fillColor=none;html=1;verticalAlign=middle;whiteSpace=wrap;rounded=0;fontSize=11;" vertex="1" parent="1">
          <mxGeometry x="926" y="3281" width="60" height="30" as="geometry" />
        </mxCell>
        <mxCell id="VvKC9R2UhtkqxEphzzf7-825" value="" style="endArrow=none;html=1;rounded=0;fontSize=12;startSize=8;endSize=8;curved=1;" edge="1" parent="1" source="VvKC9R2UhtkqxEphzzf7-792" target="VvKC9R2UhtkqxEphzzf7-819">
          <mxGeometry width="50" height="50" relative="1" as="geometry">
            <mxPoint x="776" y="3237" as="sourcePoint" />
            <mxPoint x="826" y="3187" as="targetPoint" />
          </mxGeometry>
        </mxCell>
        <mxCell id="VvKC9R2UhtkqxEphzzf7-826" value="1...1" style="text;strokeColor=none;align=center;fillColor=none;html=1;verticalAlign=middle;whiteSpace=wrap;rounded=0;fontSize=11;" vertex="1" parent="1">
          <mxGeometry x="636" y="3105" width="40" height="30" as="geometry" />
        </mxCell>
        <mxCell id="VvKC9R2UhtkqxEphzzf7-827" value="0...*" style="text;strokeColor=none;align=center;fillColor=none;html=1;verticalAlign=middle;whiteSpace=wrap;rounded=0;fontSize=12;" vertex="1" parent="1">
          <mxGeometry x="816" y="3105" width="35" height="30" as="geometry" />
        </mxCell>
        <mxCell id="VvKC9R2UhtkqxEphzzf7-828" value="Has" style="text;html=1;align=center;verticalAlign=middle;resizable=0;points=[];autosize=1;strokeColor=none;fillColor=none;" vertex="1" parent="1">
          <mxGeometry x="716" y="3105" width="40" height="30" as="geometry" />
        </mxCell>
        <mxCell id="VvKC9R2UhtkqxEphzzf7-829" value="Includes" style="text;html=1;align=center;verticalAlign=middle;resizable=0;points=[];autosize=1;strokeColor=none;fillColor=none;" vertex="1" parent="1">
          <mxGeometry x="657" y="3251" width="70" height="30" as="geometry" />
        </mxCell>
        <mxCell id="VvKC9R2UhtkqxEphzzf7-830" value="&lt;div&gt;&lt;br&gt;&lt;/div&gt;&lt;div&gt;&lt;br&gt;&lt;/div&gt;" style="endArrow=none;html=1;startArrow=none;startFill=0;align=left;verticalAlign=bottom;rounded=0;labelBackgroundColor=none;endFill=0;" edge="1" parent="1" source="VvKC9R2UhtkqxEphzzf7-673" target="VvKC9R2UhtkqxEphzzf7-819">
          <mxGeometry x="-0.8676" y="29" relative="1" as="geometry">
            <mxPoint x="731" y="3519" as="sourcePoint" />
            <mxPoint x="973" y="3325" as="targetPoint" />
            <mxPoint as="offset" />
          </mxGeometry>
        </mxCell>
        <mxCell id="VvKC9R2UhtkqxEphzzf7-831" value="1...1" style="text;html=1;align=center;verticalAlign=middle;resizable=0;points=[];autosize=1;strokeColor=none;fillColor=none;" vertex="1" parent="1">
          <mxGeometry x="556" y="3343" width="50" height="30" as="geometry" />
        </mxCell>
      </root>
    </mxGraphModel>
  </diagram>
</mxfile>
